<?xml version="1.0" encoding="UTF-8" standalone="no"?>
<!DOCTYPE svg PUBLIC "-//W3C//DTD SVG 1.1//EN"
 "http://www.w3.org/Graphics/SVG/1.1/DTD/svg11.dtd">
<!-- Generated by graphviz version 12.2.0 (20241103.1931)
 -->
<!-- Title: G Pages: 1 -->
<svg width="3317pt" height="2924pt"
 viewBox="0.00 0.00 3316.77 2924.00" xmlns="http://www.w3.org/2000/svg" xmlns:xlink="http://www.w3.org/1999/xlink">
<g id="graph0" class="graph" transform="scale(1 1) rotate(0) translate(4 2920)">
<title>G</title>
<polygon fill="white" stroke="none" points="-4,4 -4,-2920 3312.77,-2920 3312.77,4 -4,4"/>
<!-- node0 -->
<g id="node1" class="node">
<title>node0</title>
<ellipse fill="none" stroke="black" cx="755.09" cy="-2898" rx="755.09" ry="18"/>
<text text-anchor="middle" x="755.09" y="-2892.95" font-family="Times New Roman,serif" font-size="14.00">classMinhaClasse{intx;booly;intsoma(inta,intb){returna+b;}voidmetodo(inta,boolb){if(a&gt;10){returntrue;}else{returnfalse;}}voidmain(){inta=5;boolb=true;intc=soma(a,10);metodo(a,b);returna+b;}}</text>
</g>
<!-- node1 -->
<g id="node2" class="node">
<title>node1</title>
<ellipse fill="none" stroke="black" cx="755.09" cy="-2826" rx="33.44" ry="18"/>
<text text-anchor="middle" x="755.09" y="-2820.95" font-family="Times New Roman,serif" font-size="14.00">node1</text>
</g>
<!-- node0&#45;&gt;node1 -->
<g id="edge1" class="edge">
<title>node0&#45;&gt;node1</title>
<path fill="none" stroke="black" d="M755.09,-2879.7C755.09,-2872.41 755.09,-2863.73 755.09,-2855.54"/>
<polygon fill="black" stroke="black" points="758.59,-2855.62 755.09,-2845.62 751.59,-2855.62 758.59,-2855.62"/>
</g>
<!-- node2 -->
<g id="node3" class="node">
<title>node2</title>
<ellipse fill="none" stroke="black" cx="2283.09" cy="-2898" rx="755.09" ry="18"/>
<text text-anchor="middle" x="2283.09" y="-2892.95" font-family="Times New Roman,serif" font-size="14.00">classMinhaClasse{intx;booly;intsoma(inta,intb){returna+b;}voidmetodo(inta,boolb){if(a&gt;10){returntrue;}else{returnfalse;}}voidmain(){inta=5;boolb=true;intc=soma(a,10);metodo(a,b);returna+b;}}</text>
</g>
<!-- node3 -->
<g id="node4" class="node">
<title>node3</title>
<ellipse fill="none" stroke="black" cx="1937.09" cy="-2826" rx="33.44" ry="18"/>
<text text-anchor="middle" x="1937.09" y="-2820.95" font-family="Times New Roman,serif" font-size="14.00">node3</text>
</g>
<!-- node2&#45;&gt;node3 -->
<g id="edge2" class="edge">
<title>node2&#45;&gt;node3</title>
<path fill="none" stroke="black" d="M2148.52,-2879.82C2095.19,-2871.39 2033.69,-2859.62 1979.09,-2844 1976.99,-2843.4 1974.85,-2842.73 1972.71,-2842.01"/>
<polygon fill="black" stroke="black" points="1974.12,-2838.8 1963.52,-2838.65 1971.71,-2845.37 1974.12,-2838.8"/>
</g>
<!-- node4 -->
<g id="node5" class="node">
<title>node4</title>
<ellipse fill="none" stroke="black" cx="2017.09" cy="-2826" rx="28.83" ry="18"/>
<text text-anchor="middle" x="2017.09" y="-2820.95" font-family="Times New Roman,serif" font-size="14.00">class</text>
</g>
<!-- node2&#45;&gt;node4 -->
<g id="edge3" class="edge">
<title>node2&#45;&gt;node4</title>
<path fill="none" stroke="black" d="M2188.84,-2879.69C2147.02,-2870.87 2097.53,-2858.84 2054.09,-2844 2052.54,-2843.47 2050.97,-2842.9 2049.4,-2842.3"/>
<polygon fill="black" stroke="black" points="2051.07,-2839.2 2040.49,-2838.58 2048.37,-2845.66 2051.07,-2839.2"/>
</g>
<!-- node5 -->
<g id="node6" class="node">
<title>node5</title>
<ellipse fill="none" stroke="black" cx="2123.09" cy="-2826" rx="59.54" ry="18"/>
<text text-anchor="middle" x="2123.09" y="-2820.95" font-family="Times New Roman,serif" font-size="14.00">MinhaClasse</text>
</g>
<!-- node2&#45;&gt;node5 -->
<g id="edge4" class="edge">
<title>node2&#45;&gt;node5</title>
<path fill="none" stroke="black" d="M2243.54,-2879.7C2220.08,-2869.43 2190.32,-2856.42 2166.26,-2845.89"/>
<polygon fill="black" stroke="black" points="2167.94,-2842.8 2157.37,-2842 2165.13,-2849.21 2167.94,-2842.8"/>
</g>
<!-- node6 -->
<g id="node7" class="node">
<title>node6</title>
<ellipse fill="none" stroke="black" cx="2228.09" cy="-2826" rx="27" ry="18"/>
<text text-anchor="middle" x="2228.09" y="-2820.95" font-family="Times New Roman,serif" font-size="14.00">{</text>
</g>
<!-- node2&#45;&gt;node6 -->
<g id="edge5" class="edge">
<title>node2&#45;&gt;node6</title>
<path fill="none" stroke="black" d="M2269.49,-2879.7C2262.72,-2871.07 2254.41,-2860.5 2247.02,-2851.1"/>
<polygon fill="black" stroke="black" points="2249.9,-2849.09 2240.97,-2843.39 2244.39,-2853.42 2249.9,-2849.09"/>
</g>
<!-- node7 -->
<g id="node8" class="node">
<title>node7</title>
<ellipse fill="none" stroke="black" cx="2344.09" cy="-2826" rx="27.81" ry="18"/>
<text text-anchor="middle" x="2344.09" y="-2820.95" font-family="Times New Roman,serif" font-size="14.00">intx;</text>
</g>
<!-- node2&#45;&gt;node7 -->
<g id="edge10" class="edge">
<title>node2&#45;&gt;node7</title>
<path fill="none" stroke="black" d="M2298.17,-2879.7C2305.76,-2870.98 2315.08,-2860.28 2323.34,-2850.81"/>
<polygon fill="black" stroke="black" points="2325.91,-2853.18 2329.85,-2843.34 2320.64,-2848.58 2325.91,-2853.18"/>
</g>
<!-- node8 -->
<g id="node9" class="node">
<title>node8</title>
<ellipse fill="none" stroke="black" cx="2411.09" cy="-2754" rx="34.46" ry="18"/>
<text text-anchor="middle" x="2411.09" y="-2748.95" font-family="Times New Roman,serif" font-size="14.00">booly;</text>
</g>
<!-- node2&#45;&gt;node8 -->
<g id="edge15" class="edge">
<title>node2&#45;&gt;node8</title>
<path fill="none" stroke="black" d="M2331.49,-2879.65C2349.16,-2871.24 2368,-2859.53 2381.09,-2844 2395.55,-2826.84 2403.13,-2802.4 2407.05,-2783.47"/>
<polygon fill="black" stroke="black" points="2410.48,-2784.19 2408.82,-2773.73 2403.59,-2782.94 2410.48,-2784.19"/>
</g>
<!-- node9 -->
<g id="node10" class="node">
<title>node9</title>
<ellipse fill="none" stroke="black" cx="2503.09" cy="-2682" rx="125.56" ry="18"/>
<text text-anchor="middle" x="2503.09" y="-2676.95" font-family="Times New Roman,serif" font-size="14.00">intsoma(inta,intb){returna+b;}</text>
</g>
<!-- node2&#45;&gt;node9 -->
<g id="edge48" class="edge">
<title>node2&#45;&gt;node9</title>
<path fill="none" stroke="black" d="M2340.86,-2879.57C2362.53,-2871.16 2386.41,-2859.46 2405.09,-2844 2448.87,-2807.75 2478.36,-2746.57 2492.79,-2710.98"/>
<polygon fill="black" stroke="black" points="2496,-2712.39 2496.39,-2701.8 2489.48,-2709.83 2496,-2712.39"/>
</g>
<!-- node10 -->
<g id="node11" class="node">
<title>node10</title>
<ellipse fill="none" stroke="black" cx="2204.09" cy="-2610" rx="252.49" ry="18"/>
<text text-anchor="middle" x="2204.09" y="-2604.95" font-family="Times New Roman,serif" font-size="14.00">voidmetodo(inta,boolb){if(a&gt;10){returntrue;}else{returnfalse;}}</text>
</g>
<!-- node2&#45;&gt;node10 -->
<g id="edge109" class="edge">
<title>node2&#45;&gt;node10</title>
<path fill="none" stroke="black" d="M2279.81,-2879.5C2276.33,-2861.48 2270.45,-2832.63 2264.09,-2808 2248.35,-2747.14 2225.93,-2676.96 2213.43,-2638.96"/>
<polygon fill="black" stroke="black" points="2216.82,-2638.08 2210.36,-2629.69 2210.18,-2640.28 2216.82,-2638.08"/>
</g>
<!-- node11 -->
<g id="node12" class="node">
<title>node11</title>
<ellipse fill="none" stroke="black" cx="2947.09" cy="-2538" rx="282.69" ry="18"/>
<text text-anchor="middle" x="2947.09" y="-2532.95" font-family="Times New Roman,serif" font-size="14.00">voidmain(){inta=5;boolb=true;intc=soma(a,10);metodo(a,b);returna+b;}</text>
</g>
<!-- node2&#45;&gt;node11 -->
<g id="edge204" class="edge">
<title>node2&#45;&gt;node11</title>
<path fill="none" stroke="black" d="M2519.43,-2880.44C2674.63,-2862.82 2849.09,-2826.99 2849.09,-2755 2849.09,-2755 2849.09,-2755 2849.09,-2681 2849.09,-2632.95 2887.56,-2589.37 2916.3,-2563.51"/>
<polygon fill="black" stroke="black" points="2918.46,-2566.27 2923.71,-2557.07 2913.87,-2560.99 2918.46,-2566.27"/>
</g>
<!-- node7&#45;&gt;node8 -->
<g id="edge6" class="edge">
<title>node7&#45;&gt;node8</title>
<path fill="none" stroke="black" d="M2358.3,-2810.15C2367.06,-2801 2378.49,-2789.05 2388.48,-2778.62"/>
<polygon fill="black" stroke="black" points="2391,-2781.05 2395.39,-2771.4 2385.95,-2776.21 2391,-2781.05"/>
</g>
<!-- node7&#45;&gt;node9 -->
<g id="edge8" class="edge">
<title>node7&#45;&gt;node9</title>
<path fill="none" stroke="black" d="M2344.29,-2807.78C2345.42,-2788.1 2350.16,-2756.03 2368.09,-2736 2382.25,-2720.18 2401.73,-2709.03 2421.5,-2701.19"/>
<polygon fill="black" stroke="black" points="2422.55,-2704.53 2430.73,-2697.8 2420.13,-2697.96 2422.55,-2704.53"/>
</g>
<!-- node7&#45;&gt;node10 -->
<g id="edge9" class="edge">
<title>node7&#45;&gt;node10</title>
<path fill="none" stroke="black" d="M2341.74,-2807.71C2336.71,-2776.14 2322.32,-2708.34 2287.09,-2664 2277.6,-2652.05 2264.63,-2641.99 2251.77,-2633.96"/>
<polygon fill="black" stroke="black" points="2253.72,-2631.04 2243.33,-2628.98 2250.16,-2637.07 2253.72,-2631.04"/>
</g>
<!-- node8&#45;&gt;node9 -->
<g id="edge11" class="edge">
<title>node8&#45;&gt;node9</title>
<path fill="none" stroke="black" d="M2430.15,-2738.5C2442.24,-2729.3 2458.16,-2717.18 2472.04,-2706.62"/>
<polygon fill="black" stroke="black" points="2473.77,-2709.71 2479.61,-2700.87 2469.53,-2704.14 2473.77,-2709.71"/>
</g>
<!-- node8&#45;&gt;node10 -->
<g id="edge13" class="edge">
<title>node8&#45;&gt;node10</title>
<path fill="none" stroke="black" d="M2398.92,-2737.02C2383.49,-2717.64 2355.25,-2684.98 2325.09,-2664 2306.89,-2651.35 2285.19,-2640.69 2265.23,-2632.33"/>
<polygon fill="black" stroke="black" points="2266.65,-2629.13 2256.06,-2628.62 2264.02,-2635.62 2266.65,-2629.13"/>
</g>
<!-- node8&#45;&gt;node11 -->
<g id="edge14" class="edge">
<title>node8&#45;&gt;node11</title>
<path fill="none" stroke="black" d="M2444.25,-2748.16C2489.22,-2740.96 2571.56,-2725.45 2638.09,-2700 2731.34,-2664.32 2746.14,-2637.37 2835.09,-2592 2855.8,-2581.43 2878.98,-2570.34 2898.86,-2561.05"/>
<polygon fill="black" stroke="black" points="2900.26,-2564.26 2907.85,-2556.87 2897.31,-2557.92 2900.26,-2564.26"/>
</g>
<!-- node9&#45;&gt;node10 -->
<g id="edge7" class="edge">
<title>node9&#45;&gt;node10</title>
<path fill="none" stroke="black" d="M2435.54,-2666.5C2389.61,-2656.06 2328.8,-2641.86 2281,-2630.44"/>
<polygon fill="black" stroke="black" points="2282.1,-2627.1 2271.56,-2628.18 2280.47,-2633.91 2282.1,-2627.1"/>
</g>
<!-- node9&#45;&gt;node10 -->
<g id="edge16" class="edge">
<title>node9&#45;&gt;node10</title>
<path fill="none" stroke="black" d="M2443.53,-2665.72C2400.16,-2655.27 2340.78,-2641.34 2291.98,-2630.15"/>
<polygon fill="black" stroke="black" points="2292.78,-2626.74 2282.26,-2627.93 2291.22,-2633.57 2292.78,-2626.74"/>
</g>
<!-- node9&#45;&gt;node11 -->
<g id="edge18" class="edge">
<title>node9&#45;&gt;node11</title>
<path fill="none" stroke="black" d="M2550.59,-2664.88C2604.25,-2646.76 2694.24,-2616.66 2772.09,-2592 2807.16,-2580.89 2846.35,-2568.98 2878.73,-2559.26"/>
<polygon fill="black" stroke="black" points="2879.41,-2562.71 2887.99,-2556.49 2877.4,-2556.01 2879.41,-2562.71"/>
</g>
<!-- node12 -->
<g id="node13" class="node">
<title>node12</title>
<ellipse fill="none" stroke="black" cx="2543.09" cy="-2466" rx="27" ry="18"/>
<text text-anchor="middle" x="2543.09" y="-2460.95" font-family="Times New Roman,serif" font-size="14.00">}</text>
</g>
<!-- node9&#45;&gt;node12 -->
<g id="edge19" class="edge">
<title>node9&#45;&gt;node12</title>
<path fill="none" stroke="black" d="M2516.85,-2663.97C2523.99,-2654.09 2532.05,-2641.05 2536.09,-2628 2549.88,-2583.45 2548.68,-2528.65 2546.16,-2495.84"/>
<polygon fill="black" stroke="black" points="2549.65,-2495.57 2545.29,-2485.92 2542.68,-2496.18 2549.65,-2495.57"/>
</g>
<!-- node13 -->
<g id="node14" class="node">
<title>node13</title>
<ellipse fill="none" stroke="black" cx="2540.09" cy="-2394" rx="27.3" ry="18"/>
<text text-anchor="middle" x="2540.09" y="-2388.95" font-family="Times New Roman,serif" font-size="14.00">void</text>
</g>
<!-- node9&#45;&gt;node13 -->
<g id="edge20" class="edge">
<title>node9&#45;&gt;node13</title>
<path fill="none" stroke="black" d="M2502.2,-2663.75C2499.98,-2616.95 2495.18,-2488.35 2507.09,-2448 2510.04,-2437.99 2515.45,-2428.01 2521.04,-2419.45"/>
<polygon fill="black" stroke="black" points="2523.81,-2421.59 2526.68,-2411.39 2518.08,-2417.57 2523.81,-2421.59"/>
</g>
<!-- node14 -->
<g id="node15" class="node">
<title>node14</title>
<ellipse fill="none" stroke="black" cx="2540.09" cy="-2322" rx="29.86" ry="18"/>
<text text-anchor="middle" x="2540.09" y="-2316.95" font-family="Times New Roman,serif" font-size="14.00">main</text>
</g>
<!-- node9&#45;&gt;node14 -->
<g id="edge30" class="edge">
<title>node9&#45;&gt;node14</title>
<path fill="none" stroke="black" d="M2499.31,-2663.8C2489.66,-2616.29 2467.37,-2479.84 2504.09,-2376 2507.7,-2365.79 2513.77,-2355.68 2519.91,-2347.07"/>
<polygon fill="black" stroke="black" points="2522.57,-2349.35 2525.82,-2339.27 2516.99,-2345.12 2522.57,-2349.35"/>
</g>
<!-- node15 -->
<g id="node16" class="node">
<title>node15</title>
<ellipse fill="none" stroke="black" cx="2650.09" cy="-2250" rx="27" ry="18"/>
<text text-anchor="middle" x="2650.09" y="-2244.95" font-family="Times New Roman,serif" font-size="14.00">(</text>
</g>
<!-- node9&#45;&gt;node15 -->
<g id="edge31" class="edge">
<title>node9&#45;&gt;node15</title>
<path fill="none" stroke="black" d="M2524.64,-2663.78C2552.67,-2639.28 2598.09,-2591.5 2598.09,-2539 2598.09,-2539 2598.09,-2539 2598.09,-2393 2598.09,-2350.17 2619.21,-2304.25 2634.53,-2276.58"/>
<polygon fill="black" stroke="black" points="2637.38,-2278.65 2639.31,-2268.23 2631.31,-2275.17 2637.38,-2278.65"/>
</g>
<!-- node16 -->
<g id="node17" class="node">
<title>node16</title>
<ellipse fill="none" stroke="black" cx="2540.09" cy="-2178" rx="27" ry="18"/>
<text text-anchor="middle" x="2540.09" y="-2172.95" font-family="Times New Roman,serif" font-size="14.00">)</text>
</g>
<!-- node9&#45;&gt;node16 -->
<g id="edge32" class="edge">
<title>node9&#45;&gt;node16</title>
<path fill="none" stroke="black" d="M2380.35,-2677.98C2224.41,-2672.84 1971.92,-2659.69 1943.09,-2628 1932.32,-2616.17 1935.5,-2606.09 1943.09,-2592 2018.56,-2451.89 2242.09,-2554.14 2242.09,-2395 2242.09,-2395 2242.09,-2395 2242.09,-2321 2242.09,-2207.25 2421.23,-2184.53 2501.73,-2180.06"/>
<polygon fill="black" stroke="black" points="2501.52,-2183.57 2511.34,-2179.59 2501.18,-2176.58 2501.52,-2183.57"/>
</g>
<!-- node17 -->
<g id="node18" class="node">
<title>node17</title>
<ellipse fill="none" stroke="black" cx="2650.09" cy="-2106" rx="27" ry="18"/>
<text text-anchor="middle" x="2650.09" y="-2100.95" font-family="Times New Roman,serif" font-size="14.00">{</text>
</g>
<!-- node9&#45;&gt;node17 -->
<g id="edge47" class="edge">
<title>node9&#45;&gt;node17</title>
<path fill="none" stroke="black" d="M2537.48,-2664.29C2553.66,-2655.21 2572.37,-2642.79 2586.09,-2628 2612.26,-2599.79 2750.09,-2361.48 2750.09,-2323 2750.09,-2323 2750.09,-2323 2750.09,-2249 2750.09,-2197.63 2705.79,-2151.74 2676.17,-2126.79"/>
<polygon fill="black" stroke="black" points="2678.64,-2124.29 2668.68,-2120.69 2674.22,-2129.72 2678.64,-2124.29"/>
</g>
<!-- node10&#45;&gt;node11 -->
<g id="edge12" class="edge">
<title>node10&#45;&gt;node11</title>
<path fill="none" stroke="black" d="M2348.9,-2594.83C2471.88,-2583.1 2648.5,-2566.46 2777.95,-2554.4"/>
<polygon fill="black" stroke="black" points="2778.01,-2557.91 2787.64,-2553.49 2777.36,-2550.94 2778.01,-2557.91"/>
</g>
<!-- node10&#45;&gt;node11 -->
<g id="edge49" class="edge">
<title>node10&#45;&gt;node11</title>
<path fill="none" stroke="black" d="M2355.94,-2595.21C2481.04,-2583.57 2657.97,-2566.91 2785.64,-2554.75"/>
<polygon fill="black" stroke="black" points="2785.93,-2558.24 2795.55,-2553.81 2785.27,-2551.27 2785.93,-2558.24"/>
</g>
<!-- node10&#45;&gt;node12 -->
<g id="edge51" class="edge">
<title>node10&#45;&gt;node12</title>
<path fill="none" stroke="black" d="M2349.48,-2594.89C2387.17,-2587.03 2426.56,-2574.85 2460.09,-2556 2487.63,-2540.52 2511.31,-2512.76 2526.25,-2492.34"/>
<polygon fill="black" stroke="black" points="2529.07,-2494.42 2531.98,-2484.23 2523.35,-2490.38 2529.07,-2494.42"/>
</g>
<!-- node10&#45;&gt;node13 -->
<g id="edge52" class="edge">
<title>node10&#45;&gt;node13</title>
<path fill="none" stroke="black" d="M2294.46,-2592.82C2323.98,-2584.81 2355.88,-2573.07 2382.09,-2556 2434.92,-2521.59 2428.86,-2491.94 2474.09,-2448 2486.27,-2436.17 2500.9,-2424.22 2513.29,-2414.67"/>
<polygon fill="black" stroke="black" points="2515.18,-2417.62 2521.04,-2408.79 2510.95,-2412.05 2515.18,-2417.62"/>
</g>
<!-- node10&#45;&gt;node14 -->
<g id="edge53" class="edge">
<title>node10&#45;&gt;node14</title>
<path fill="none" stroke="black" d="M2282.23,-2592.48C2303.76,-2584.58 2325.46,-2572.98 2341.09,-2556 2397.57,-2494.64 2336.97,-2436.77 2394.09,-2376 2421.68,-2346.65 2466.78,-2333.5 2499.57,-2327.65"/>
<polygon fill="black" stroke="black" points="2499.79,-2331.16 2509.11,-2326.11 2498.68,-2324.25 2499.79,-2331.16"/>
</g>
<!-- node10&#45;&gt;node15 -->
<g id="edge63" class="edge">
<title>node10&#45;&gt;node15</title>
<path fill="none" stroke="black" d="M2247.58,-2591.95C2264.69,-2583.38 2283.27,-2571.47 2296.09,-2556 2322.8,-2523.74 2327.09,-2508.89 2327.09,-2467 2327.09,-2467 2327.09,-2467 2327.09,-2393 2327.09,-2269.99 2525.82,-2252.59 2611.52,-2250.8"/>
<polygon fill="black" stroke="black" points="2611.36,-2254.31 2621.31,-2250.67 2611.27,-2247.31 2611.36,-2254.31"/>
</g>
<!-- node10&#45;&gt;node16 -->
<g id="edge64" class="edge">
<title>node10&#45;&gt;node16</title>
<path fill="none" stroke="black" d="M2221.01,-2591.85C2243.95,-2566.71 2282.09,-2517.35 2282.09,-2467 2282.09,-2467 2282.09,-2467 2282.09,-2321 2282.09,-2221.72 2430.54,-2191.35 2502.23,-2182.47"/>
<polygon fill="black" stroke="black" points="2502.41,-2185.98 2511.95,-2181.36 2501.61,-2179.02 2502.41,-2185.98"/>
</g>
<!-- node10&#45;&gt;node17 -->
<g id="edge65" class="edge">
<title>node10&#45;&gt;node17</title>
<path fill="none" stroke="black" d="M2204.09,-2591.51C2204.09,-2564.71 2204.09,-2511.87 2204.09,-2467 2204.09,-2467 2204.09,-2467 2204.09,-2249 2204.09,-2163.72 2503.87,-2122.83 2611.88,-2110.86"/>
<polygon fill="black" stroke="black" points="2612.12,-2114.36 2621.69,-2109.8 2611.37,-2107.4 2612.12,-2114.36"/>
</g>
<!-- node18 -->
<g id="node19" class="node">
<title>node18</title>
<ellipse fill="none" stroke="black" cx="2689.09" cy="-2034" rx="37.53" ry="18"/>
<text text-anchor="middle" x="2689.09" y="-2028.95" font-family="Times New Roman,serif" font-size="14.00">inta=5;</text>
</g>
<!-- node10&#45;&gt;node18 -->
<g id="edge108" class="edge">
<title>node10&#45;&gt;node18</title>
<path fill="none" stroke="black" d="M2196.4,-2591.91C2185.29,-2565.62 2166.09,-2513.45 2166.09,-2467 2166.09,-2467 2166.09,-2467 2166.09,-2177 2166.09,-2079.16 2511.26,-2046.57 2640.77,-2037.79"/>
<polygon fill="black" stroke="black" points="2640.63,-2041.3 2650.38,-2037.16 2640.18,-2034.32 2640.63,-2041.3"/>
</g>
<!-- node11&#45;&gt;node12 -->
<g id="edge17" class="edge">
<title>node11&#45;&gt;node12</title>
<path fill="none" stroke="black" d="M2847.33,-2520.72C2760.66,-2505.99 2639.96,-2484.99 2579.92,-2474.12"/>
<polygon fill="black" stroke="black" points="2580.7,-2470.71 2570.24,-2472.36 2579.45,-2477.6 2580.7,-2470.71"/>
</g>
<!-- node11&#45;&gt;node12 -->
<g id="edge110" class="edge">
<title>node11&#45;&gt;node12</title>
<path fill="none" stroke="black" d="M2857.44,-2520.46C2770.57,-2505.11 2643.13,-2483.14 2580.5,-2472.8"/>
<polygon fill="black" stroke="black" points="2581.16,-2469.36 2570.72,-2471.2 2580.03,-2476.27 2581.16,-2469.36"/>
</g>
<!-- node11&#45;&gt;node13 -->
<g id="edge112" class="edge">
<title>node11&#45;&gt;node13</title>
<path fill="none" stroke="black" d="M2836.87,-2520.97C2792.85,-2512.67 2742.22,-2500.68 2698.09,-2484 2649.67,-2465.7 2598.27,-2434.2 2567.69,-2414"/>
<polygon fill="black" stroke="black" points="2569.67,-2411.11 2559.41,-2408.46 2565.78,-2416.93 2569.67,-2411.11"/>
</g>
<!-- node11&#45;&gt;node14 -->
<g id="edge113" class="edge">
<title>node11&#45;&gt;node14</title>
<path fill="none" stroke="black" d="M2844.56,-2520.76C2808.99,-2512.69 2769.65,-2500.92 2736.09,-2484 2664.31,-2447.82 2595.25,-2381.38 2561.52,-2346.23"/>
<polygon fill="black" stroke="black" points="2564.18,-2343.95 2554.76,-2339.1 2559.1,-2348.77 2564.18,-2343.95"/>
</g>
<!-- node11&#45;&gt;node15 -->
<g id="edge114" class="edge">
<title>node11&#45;&gt;node15</title>
<path fill="none" stroke="black" d="M2847.57,-2520.8C2821.6,-2512.94 2795.05,-2501.29 2774.09,-2484 2707.29,-2428.93 2671.55,-2328.24 2657.41,-2279.26"/>
<polygon fill="black" stroke="black" points="2660.8,-2278.41 2654.75,-2269.72 2654.06,-2280.29 2660.8,-2278.41"/>
</g>
<!-- node11&#45;&gt;node16 -->
<g id="edge115" class="edge">
<title>node11&#45;&gt;node16</title>
<path fill="none" stroke="black" d="M2876.41,-2520.13C2853.86,-2512.08 2830.11,-2500.48 2812.09,-2484 2719.67,-2399.51 2779.59,-2315.29 2686.09,-2232 2655.51,-2204.76 2609.84,-2191.19 2577.74,-2184.66"/>
<polygon fill="black" stroke="black" points="2578.54,-2181.24 2568.07,-2182.83 2577.24,-2188.12 2578.54,-2181.24"/>
</g>
<!-- node11&#45;&gt;node17 -->
<g id="edge116" class="edge">
<title>node11&#45;&gt;node17</title>
<path fill="none" stroke="black" d="M2898.42,-2519.84C2880.94,-2511.48 2862.49,-2499.76 2850.09,-2484 2824.74,-2451.81 2826.09,-2435.97 2826.09,-2395 2826.09,-2395 2826.09,-2395 2826.09,-2249 2826.09,-2177.31 2736.54,-2135.64 2685.2,-2117.65"/>
<polygon fill="black" stroke="black" points="2686.59,-2114.42 2675.99,-2114.55 2684.35,-2121.06 2686.59,-2114.42"/>
</g>
<!-- node11&#45;&gt;node18 -->
<g id="edge128" class="edge">
<title>node11&#45;&gt;node18</title>
<path fill="none" stroke="black" d="M2921.85,-2519.7C2910.02,-2510.39 2896.67,-2497.96 2888.09,-2484 2866.63,-2449.1 2864.09,-2435.97 2864.09,-2395 2864.09,-2395 2864.09,-2395 2864.09,-2177 2864.09,-2108.69 2782.7,-2067.51 2730.93,-2048.23"/>
<polygon fill="black" stroke="black" points="2732.39,-2045.03 2721.8,-2044.95 2730.03,-2051.62 2732.39,-2045.03"/>
</g>
<!-- node19 -->
<g id="node20" class="node">
<title>node19</title>
<ellipse fill="none" stroke="black" cx="2755.09" cy="-1962" rx="54.42" ry="18"/>
<text text-anchor="middle" x="2755.09" y="-1956.95" font-family="Times New Roman,serif" font-size="14.00">boolb=true;</text>
</g>
<!-- node11&#45;&gt;node19 -->
<g id="edge140" class="edge">
<title>node11&#45;&gt;node19</title>
<path fill="none" stroke="black" d="M2937.76,-2519.63C2924.58,-2493.41 2902.09,-2441.81 2902.09,-2395 2902.09,-2395 2902.09,-2395 2902.09,-2105 2902.09,-2046.36 2840.83,-2004.26 2797.41,-1981.78"/>
<polygon fill="black" stroke="black" points="2799.21,-1978.76 2788.7,-1977.42 2796.08,-1985.03 2799.21,-1978.76"/>
</g>
<!-- node20 -->
<g id="node21" class="node">
<title>node20</title>
<ellipse fill="none" stroke="black" cx="2994.09" cy="-1890" rx="74.89" ry="18"/>
<text text-anchor="middle" x="2994.09" y="-1884.95" font-family="Times New Roman,serif" font-size="14.00">intc=soma(a,10);</text>
</g>
<!-- node11&#45;&gt;node20 -->
<g id="edge168" class="edge">
<title>node11&#45;&gt;node20</title>
<path fill="none" stroke="black" d="M2954.98,-2519.93C2966.38,-2493.67 2986.09,-2441.53 2986.09,-2395 2986.09,-2395 2986.09,-2395 2986.09,-2033 2986.09,-1993.68 2989.18,-1948.33 2991.52,-1919.67"/>
<polygon fill="black" stroke="black" points="2994.99,-1920.24 2992.34,-1909.98 2988.01,-1919.65 2994.99,-1920.24"/>
</g>
<!-- node21 -->
<g id="node22" class="node">
<title>node21</title>
<ellipse fill="none" stroke="black" cx="2748.09" cy="-1818" rx="59.03" ry="18"/>
<text text-anchor="middle" x="2748.09" y="-1812.95" font-family="Times New Roman,serif" font-size="14.00">metodo(a,b);</text>
</g>
<!-- node11&#45;&gt;node21 -->
<g id="edge188" class="edge">
<title>node11&#45;&gt;node21</title>
<path fill="none" stroke="black" d="M2945.67,-2519.52C2943.63,-2492.74 2940.09,-2439.92 2940.09,-2395 2940.09,-2395 2940.09,-2395 2940.09,-2105 2940.09,-1990.24 2832.2,-1886.82 2778.17,-1842.23"/>
<polygon fill="black" stroke="black" points="2780.52,-1839.62 2770.54,-1836.04 2776.11,-1845.06 2780.52,-1839.62"/>
</g>
<!-- node22 -->
<g id="node23" class="node">
<title>node22</title>
<ellipse fill="none" stroke="black" cx="2800.09" cy="-1746" rx="49.82" ry="18"/>
<text text-anchor="middle" x="2800.09" y="-1740.95" font-family="Times New Roman,serif" font-size="14.00">returna+b;</text>
</g>
<!-- node11&#45;&gt;node22 -->
<g id="edge203" class="edge">
<title>node11&#45;&gt;node22</title>
<path fill="none" stroke="black" d="M3134,-2524.14C3213,-2507.46 3287.09,-2471.44 3287.09,-2395 3287.09,-2395 3287.09,-2395 3287.09,-1889 3287.09,-1800.95 2989.95,-1763.81 2859.87,-1751.78"/>
<polygon fill="black" stroke="black" points="2860.35,-1748.3 2850.07,-1750.89 2859.72,-1755.28 2860.35,-1748.3"/>
</g>
<!-- node12&#45;&gt;node13 -->
<g id="edge50" class="edge">
<title>node12&#45;&gt;node13</title>
<path fill="none" stroke="black" d="M2542.35,-2447.7C2542.03,-2440.41 2541.66,-2431.73 2541.31,-2423.54"/>
<polygon fill="black" stroke="black" points="2544.81,-2423.46 2540.89,-2413.62 2537.82,-2423.76 2544.81,-2423.46"/>
</g>
<!-- node13&#45;&gt;node14 -->
<g id="edge111" class="edge">
<title>node13&#45;&gt;node14</title>
<path fill="none" stroke="black" d="M2540.09,-2375.7C2540.09,-2368.41 2540.09,-2359.73 2540.09,-2351.54"/>
<polygon fill="black" stroke="black" points="2543.59,-2351.62 2540.09,-2341.62 2536.59,-2351.62 2543.59,-2351.62"/>
</g>
<!-- node14&#45;&gt;node15 -->
<g id="edge21" class="edge">
<title>node14&#45;&gt;node15</title>
<path fill="none" stroke="black" d="M2560.01,-2308.32C2577.2,-2297.39 2602.23,-2281.46 2621.54,-2269.16"/>
<polygon fill="black" stroke="black" points="2623.22,-2272.25 2629.77,-2263.93 2619.46,-2266.34 2623.22,-2272.25"/>
</g>
<!-- node14&#45;&gt;node16 -->
<g id="edge25" class="edge">
<title>node14&#45;&gt;node16</title>
<path fill="none" stroke="black" d="M2540.09,-2303.59C2540.09,-2279.61 2540.09,-2236.14 2540.09,-2207.42"/>
<polygon fill="black" stroke="black" points="2543.59,-2207.62 2540.09,-2197.62 2536.59,-2207.62 2543.59,-2207.62"/>
</g>
<!-- node14&#45;&gt;node17 -->
<g id="edge26" class="edge">
<title>node14&#45;&gt;node17</title>
<path fill="none" stroke="black" d="M2548.54,-2304.56C2567.45,-2267.76 2613.35,-2178.47 2636.4,-2133.62"/>
<polygon fill="black" stroke="black" points="2639.46,-2135.33 2640.92,-2124.84 2633.23,-2132.13 2639.46,-2135.33"/>
</g>
<!-- node15&#45;&gt;node16 -->
<g id="edge54" class="edge">
<title>node15&#45;&gt;node16</title>
<path fill="none" stroke="black" d="M2630.93,-2236.81C2613.73,-2225.87 2588.27,-2209.66 2568.67,-2197.19"/>
<polygon fill="black" stroke="black" points="2570.62,-2194.28 2560.31,-2191.87 2566.86,-2200.19 2570.62,-2194.28"/>
</g>
<!-- node15&#45;&gt;node17 -->
<g id="edge58" class="edge">
<title>node15&#45;&gt;node17</title>
<path fill="none" stroke="black" d="M2650.09,-2231.59C2650.09,-2207.61 2650.09,-2164.14 2650.09,-2135.42"/>
<polygon fill="black" stroke="black" points="2653.59,-2135.62 2650.09,-2125.62 2646.59,-2135.62 2653.59,-2135.62"/>
</g>
<!-- node15&#45;&gt;node18 -->
<g id="edge59" class="edge">
<title>node15&#45;&gt;node18</title>
<path fill="none" stroke="black" d="M2656.33,-2232.32C2664.85,-2208.63 2679.8,-2163.7 2686.09,-2124 2689.26,-2104 2689.97,-2081.16 2689.91,-2063.63"/>
<polygon fill="black" stroke="black" points="2693.41,-2063.65 2689.78,-2053.69 2686.41,-2063.74 2693.41,-2063.65"/>
</g>
<!-- node16&#45;&gt;node17 -->
<g id="edge22" class="edge">
<title>node16&#45;&gt;node17</title>
<path fill="none" stroke="black" d="M2559.25,-2164.81C2576.44,-2153.87 2601.91,-2137.66 2621.51,-2125.19"/>
<polygon fill="black" stroke="black" points="2623.31,-2128.19 2629.87,-2119.87 2619.55,-2122.28 2623.31,-2128.19"/>
</g>
<!-- node16&#45;&gt;node18 -->
<g id="edge24" class="edge">
<title>node16&#45;&gt;node18</title>
<path fill="none" stroke="black" d="M2551.28,-2161.14C2564.89,-2142.46 2589.15,-2111.05 2614.09,-2088 2627.18,-2075.89 2643.15,-2064.25 2656.98,-2054.97"/>
<polygon fill="black" stroke="black" points="2658.9,-2057.9 2665.34,-2049.49 2655.06,-2052.05 2658.9,-2057.9"/>
</g>
<!-- node17&#45;&gt;node18 -->
<g id="edge33" class="edge">
<title>node17&#45;&gt;node18</title>
<path fill="none" stroke="black" d="M2653.81,-2087.7C2657.55,-2079.46 2662.93,-2069.45 2668.43,-2060.37"/>
<polygon fill="black" stroke="black" points="2671.38,-2062.26 2673.81,-2051.95 2665.48,-2058.5 2671.38,-2062.26"/>
</g>
<!-- node17&#45;&gt;node18 -->
<g id="edge55" class="edge">
<title>node17&#45;&gt;node18</title>
<path fill="none" stroke="black" d="M2663.99,-2090.15C2669.49,-2082.11 2675.49,-2071.9 2680.39,-2062.47"/>
<polygon fill="black" stroke="black" points="2683.46,-2064.17 2684.7,-2053.65 2677.17,-2061.1 2683.46,-2064.17"/>
</g>
<!-- node17&#45;&gt;node19 -->
<g id="edge57" class="edge">
<title>node17&#45;&gt;node19</title>
<path fill="none" stroke="black" d="M2673.53,-2096.65C2693.28,-2088.38 2720.72,-2073.78 2736.09,-2052 2748.49,-2034.42 2753.07,-2010.36 2754.65,-1991.69"/>
<polygon fill="black" stroke="black" points="2758.14,-1992.01 2755.21,-1981.83 2751.15,-1991.61 2758.14,-1992.01"/>
</g>
<!-- node18&#45;&gt;node19 -->
<g id="edge23" class="edge">
<title>node18&#45;&gt;node19</title>
<path fill="none" stroke="black" d="M2687.65,-2015.7C2693.68,-2006.18 2704.53,-1994.3 2716.28,-1984.23"/>
<polygon fill="black" stroke="black" points="2718.15,-1987.22 2723.75,-1978.23 2713.77,-1981.76 2718.15,-1987.22"/>
</g>
<!-- node18&#45;&gt;node19 -->
<g id="edge27" class="edge">
<title>node18&#45;&gt;node19</title>
<path fill="none" stroke="black" d="M2698.89,-2016.41C2706.26,-2007.57 2716.47,-1996.53 2726.23,-1986.79"/>
<polygon fill="black" stroke="black" points="2728.43,-1989.53 2733.16,-1980.04 2723.55,-1984.51 2728.43,-1989.53"/>
</g>
<!-- node18&#45;&gt;node19 -->
<g id="edge66" class="edge">
<title>node18&#45;&gt;node19</title>
<path fill="none" stroke="black" d="M2708.36,-2018.5C2717.65,-2009.82 2728.58,-1998.56 2737.62,-1988.45"/>
<polygon fill="black" stroke="black" points="2740.09,-1990.94 2743.99,-1981.09 2734.8,-1986.36 2740.09,-1990.94"/>
</g>
<!-- node18&#45;&gt;node19 -->
<g id="edge117" class="edge">
<title>node18&#45;&gt;node19</title>
<path fill="none" stroke="black" d="M2715.93,-2021.13C2728.17,-2012.5 2740.87,-2000.47 2749.73,-1989.6"/>
<polygon fill="black" stroke="black" points="2752.45,-1991.81 2755.53,-1981.68 2746.8,-1987.68 2752.45,-1991.81"/>
</g>
<!-- node18&#45;&gt;node20 -->
<g id="edge29" class="edge">
<title>node18&#45;&gt;node20</title>
<path fill="none" stroke="black" d="M2714.43,-2020.41C2738.99,-2010.08 2776.72,-1994.81 2809.09,-1980 2857.33,-1957.93 2911.64,-1929.98 2949,-1911.34"/>
<polygon fill="black" stroke="black" points="2950.32,-1914.6 2957.72,-1907.02 2947.2,-1908.33 2950.32,-1914.6"/>
</g>
<!-- node18&#45;&gt;node20 -->
<g id="edge119" class="edge">
<title>node18&#45;&gt;node20</title>
<path fill="none" stroke="black" d="M2720.26,-2023.6C2748.71,-2013.41 2791.2,-1996.42 2827.09,-1980 2873.93,-1958.57 2926.5,-1931.6 2960.06,-1912.99"/>
<polygon fill="black" stroke="black" points="2961.51,-1916.19 2968.52,-1908.24 2958.08,-1910.08 2961.51,-1916.19"/>
</g>
<!-- node18&#45;&gt;node21 -->
<g id="edge120" class="edge">
<title>node18&#45;&gt;node21</title>
<path fill="none" stroke="black" d="M2687.72,-2015.68C2686.74,-1997.56 2686.44,-1968.4 2692.09,-1944 2700.31,-1908.48 2718.77,-1870.67 2732.25,-1846.06"/>
<polygon fill="black" stroke="black" points="2735.29,-1847.8 2737.12,-1837.37 2729.18,-1844.38 2735.29,-1847.8"/>
</g>
<!-- node18&#45;&gt;node22 -->
<g id="edge121" class="edge">
<title>node18&#45;&gt;node22</title>
<path fill="none" stroke="black" d="M2680.84,-2016.26C2661.96,-1975.3 2620.69,-1868.44 2667.09,-1800 2683.88,-1775.23 2714.3,-1762.03 2741.81,-1755.01"/>
<polygon fill="black" stroke="black" points="2742.54,-1758.43 2751.5,-1752.78 2740.97,-1751.61 2742.54,-1758.43"/>
</g>
<!-- node23 -->
<g id="node24" class="node">
<title>node23</title>
<ellipse fill="none" stroke="black" cx="2809.09" cy="-1674" rx="27" ry="18"/>
<text text-anchor="middle" x="2809.09" y="-1668.95" font-family="Times New Roman,serif" font-size="14.00">}</text>
</g>
<!-- node18&#45;&gt;node23 -->
<g id="edge127" class="edge">
<title>node18&#45;&gt;node23</title>
<path fill="none" stroke="black" d="M2659.74,-2022.45C2613.55,-2003.74 2529.09,-1960.08 2529.09,-1891 2529.09,-1891 2529.09,-1891 2529.09,-1817 2529.09,-1709.81 2694.32,-1683.51 2770.92,-1677.07"/>
<polygon fill="black" stroke="black" points="2770.77,-1680.6 2780.48,-1676.35 2770.24,-1673.62 2770.77,-1680.6"/>
</g>
<!-- node19&#45;&gt;node20 -->
<g id="edge34" class="edge">
<title>node19&#45;&gt;node20</title>
<path fill="none" stroke="black" d="M2786.55,-1946.92C2823,-1934.83 2882.18,-1917.49 2928.44,-1905.33"/>
<polygon fill="black" stroke="black" points="2929.04,-1908.79 2937.84,-1902.89 2927.28,-1902.02 2929.04,-1908.79"/>
</g>
<!-- node19&#45;&gt;node20 -->
<g id="edge56" class="edge">
<title>node19&#45;&gt;node20</title>
<path fill="none" stroke="black" d="M2792.5,-1948.49C2830.36,-1936.88 2889.33,-1919.57 2933.78,-1906.97"/>
<polygon fill="black" stroke="black" points="2934.61,-1910.38 2943.29,-1904.29 2932.71,-1903.64 2934.61,-1910.38"/>
</g>
<!-- node19&#45;&gt;node20 -->
<g id="edge60" class="edge">
<title>node19&#45;&gt;node20</title>
<path fill="none" stroke="black" d="M2797.22,-1950.14C2837.13,-1939.01 2897.09,-1921.54 2940.4,-1908.46"/>
<polygon fill="black" stroke="black" points="2941.3,-1911.85 2949.85,-1905.6 2939.27,-1905.15 2941.3,-1911.85"/>
</g>
<!-- node19&#45;&gt;node20 -->
<g id="edge129" class="edge">
<title>node19&#45;&gt;node20</title>
<path fill="none" stroke="black" d="M2800.82,-1951.78C2843.48,-1941.14 2905.41,-1923.39 2948.06,-1909.81"/>
<polygon fill="black" stroke="black" points="2949.12,-1913.14 2957.56,-1906.74 2946.97,-1906.48 2949.12,-1913.14"/>
</g>
<!-- node19&#45;&gt;node21 -->
<g id="edge35" class="edge">
<title>node19&#45;&gt;node21</title>
<path fill="none" stroke="black" d="M2745.07,-1943.87C2738.85,-1919.99 2736.06,-1876.38 2738.42,-1847.54"/>
<polygon fill="black" stroke="black" points="2741.89,-1848.03 2739.58,-1837.69 2734.94,-1847.22 2741.89,-1848.03"/>
</g>
<!-- node19&#45;&gt;node21 -->
<g id="edge62" class="edge">
<title>node19&#45;&gt;node21</title>
<path fill="none" stroke="black" d="M2754.23,-1943.59C2753.05,-1919.61 2750.9,-1876.14 2749.49,-1847.42"/>
<polygon fill="black" stroke="black" points="2752.99,-1847.44 2749.01,-1837.62 2746,-1847.78 2752.99,-1847.44"/>
</g>
<!-- node19&#45;&gt;node21 -->
<g id="edge131" class="edge">
<title>node19&#45;&gt;node21</title>
<path fill="none" stroke="black" d="M2763.41,-1943.87C2767.3,-1919.88 2765.76,-1875.99 2760.5,-1847.16"/>
<polygon fill="black" stroke="black" points="2763.98,-1846.7 2758.44,-1837.67 2757.14,-1848.18 2763.98,-1846.7"/>
</g>
<!-- node19&#45;&gt;node22 -->
<g id="edge46" class="edge">
<title>node19&#45;&gt;node22</title>
<path fill="none" stroke="black" d="M2732.38,-1945.38C2697.42,-1915.71 2638.68,-1849.73 2671.09,-1800 2686.71,-1776.02 2715.92,-1762.81 2742.67,-1755.58"/>
<polygon fill="black" stroke="black" points="2743.2,-1759.05 2752.08,-1753.27 2741.53,-1752.25 2743.2,-1759.05"/>
</g>
<!-- node19&#45;&gt;node22 -->
<g id="edge132" class="edge">
<title>node19&#45;&gt;node22</title>
<path fill="none" stroke="black" d="M2741.65,-1944.2C2713.91,-1914 2657.11,-1849.09 2689.09,-1800 2702.28,-1779.76 2725.14,-1767.19 2746.75,-1759.41"/>
<polygon fill="black" stroke="black" points="2747.7,-1762.79 2756.11,-1756.34 2745.52,-1756.14 2747.7,-1762.79"/>
</g>
<!-- node19&#45;&gt;node23 -->
<g id="edge133" class="edge">
<title>node19&#45;&gt;node23</title>
<path fill="none" stroke="black" d="M2723.2,-1947.22C2706.74,-1938.43 2687.89,-1925.38 2677.09,-1908 2651.65,-1867.06 2649.96,-1845.06 2667.09,-1800 2686.79,-1748.17 2742.27,-1710.33 2777.76,-1690.58"/>
<polygon fill="black" stroke="black" points="2779.16,-1693.8 2786.3,-1685.98 2775.84,-1687.64 2779.16,-1693.8"/>
</g>
<!-- node24 -->
<g id="node25" class="node">
<title>node24</title>
<ellipse fill="none" stroke="black" cx="2925.09" cy="-1602" rx="49.82" ry="18"/>
<text text-anchor="middle" x="2925.09" y="-1596.95" font-family="Times New Roman,serif" font-size="14.00">returna+b;</text>
</g>
<!-- node19&#45;&gt;node24 -->
<g id="edge139" class="edge">
<title>node19&#45;&gt;node24</title>
<path fill="none" stroke="black" d="M2764.58,-1943.86C2770.29,-1933.51 2777.67,-1920.03 2784.09,-1908 2818.07,-1844.34 2828.7,-1829.45 2859.09,-1764 2880.48,-1717.92 2902.25,-1662.9 2914.67,-1630.58"/>
<polygon fill="black" stroke="black" points="2917.81,-1632.14 2918.11,-1621.55 2911.27,-1629.65 2917.81,-1632.14"/>
</g>
<!-- node20&#45;&gt;node21 -->
<g id="edge28" class="edge">
<title>node20&#45;&gt;node21</title>
<path fill="none" stroke="black" d="M2938.59,-1877.6C2894.07,-1866.49 2833.37,-1849.45 2792.1,-1836.6"/>
<polygon fill="black" stroke="black" points="2793.3,-1833.31 2782.71,-1833.64 2791.19,-1839.98 2793.3,-1833.31"/>
</g>
<!-- node20&#45;&gt;node21 -->
<g id="edge67" class="edge">
<title>node20&#45;&gt;node21</title>
<path fill="none" stroke="black" d="M2943.9,-1876.24C2901.48,-1864.66 2841.13,-1847.52 2798.62,-1835.02"/>
<polygon fill="black" stroke="black" points="2799.71,-1831.69 2789.12,-1832.22 2797.72,-1838.41 2799.71,-1831.69"/>
</g>
<!-- node20&#45;&gt;node21 -->
<g id="edge118" class="edge">
<title>node20&#45;&gt;node21</title>
<path fill="none" stroke="black" d="M2950.42,-1875C2909.39,-1862.86 2847.95,-1845.38 2803.5,-1833.19"/>
<polygon fill="black" stroke="black" points="2804.61,-1829.86 2794.04,-1830.61 2802.77,-1836.62 2804.61,-1829.86"/>
</g>
<!-- node20&#45;&gt;node21 -->
<g id="edge141" class="edge">
<title>node20&#45;&gt;node21</title>
<path fill="none" stroke="black" d="M2957.74,-1873.81C2917.77,-1861.12 2854.56,-1843.24 2807.54,-1831.4"/>
<polygon fill="black" stroke="black" points="2808.58,-1828.05 2798.04,-1829.03 2806.9,-1834.84 2808.58,-1828.05"/>
</g>
<!-- node20&#45;&gt;node22 -->
<g id="edge68" class="edge">
<title>node20&#45;&gt;node22</title>
<path fill="none" stroke="black" d="M2962.26,-1873.41C2945.15,-1863.07 2924.17,-1849.04 2906.09,-1836 2876.52,-1814.68 2843.73,-1789.1 2822.37,-1770.85"/>
<polygon fill="black" stroke="black" points="2824.93,-1768.44 2815.09,-1764.5 2820.33,-1773.71 2824.93,-1768.44"/>
</g>
<!-- node20&#45;&gt;node22 -->
<g id="edge143" class="edge">
<title>node20&#45;&gt;node22</title>
<path fill="none" stroke="black" d="M2975.99,-1872.25C2961.6,-1862.03 2941.5,-1848.56 2924.09,-1836 2893.22,-1813.74 2858.83,-1786.84 2833.93,-1768.48"/>
<polygon fill="black" stroke="black" points="2836.25,-1765.83 2826.1,-1762.78 2832.13,-1771.49 2836.25,-1765.83"/>
</g>
<!-- node20&#45;&gt;node23 -->
<g id="edge69" class="edge">
<title>node20&#45;&gt;node23</title>
<path fill="none" stroke="black" d="M2975.22,-1872.27C2947.66,-1842.72 2895.91,-1779.51 2850.09,-1728 2841.85,-1718.74 2832.6,-1708.81 2824.81,-1700.07"/>
<polygon fill="black" stroke="black" points="2827.54,-1697.87 2818.33,-1692.62 2822.25,-1702.46 2827.54,-1697.87"/>
</g>
<!-- node20&#45;&gt;node23 -->
<g id="edge144" class="edge">
<title>node20&#45;&gt;node23</title>
<path fill="none" stroke="black" d="M2985.66,-1871.8C2965.11,-1842.05 2913.67,-1779.24 2868.09,-1728 2858.1,-1716.78 2846.62,-1704.56 2836.28,-1694.69"/>
<polygon fill="black" stroke="black" points="2838.78,-1692.23 2829.04,-1688.04 2834.04,-1697.38 2838.78,-1692.23"/>
</g>
<!-- node20&#45;&gt;node24 -->
<g id="edge82" class="edge">
<title>node20&#45;&gt;node24</title>
<path fill="none" stroke="black" d="M2987.26,-1871.73C2977.9,-1832.66 2963.63,-1734.73 2939.09,-1656 2936.49,-1647.67 2933,-1638.88 2929.88,-1630.9"/>
<polygon fill="black" stroke="black" points="2933.21,-1629.82 2926.39,-1621.72 2926.67,-1632.31 2933.21,-1629.82"/>
</g>
<!-- node20&#45;&gt;node24 -->
<g id="edge145" class="edge">
<title>node20&#45;&gt;node24</title>
<path fill="none" stroke="black" d="M2996.68,-1871.73C2995.9,-1832.66 2981.63,-1734.73 2957.09,-1656 2954.32,-1647.11 2950.53,-1637.7 2946.4,-1629.32"/>
<polygon fill="black" stroke="black" points="2949.58,-1627.84 2941.76,-1620.69 2943.42,-1631.16 2949.58,-1627.84"/>
</g>
<!-- node25 -->
<g id="node26" class="node">
<title>node25</title>
<ellipse fill="none" stroke="black" cx="3026.09" cy="-1530" rx="39.07" ry="18"/>
<text text-anchor="middle" x="3026.09" y="-1524.95" font-family="Times New Roman,serif" font-size="14.00">metodo</text>
</g>
<!-- node20&#45;&gt;node25 -->
<g id="edge83" class="edge">
<title>node20&#45;&gt;node25</title>
<path fill="none" stroke="black" d="M2999.87,-1871.93C3013.09,-1846.09 3041.09,-1794.97 3041.09,-1747 3041.09,-1747 3041.09,-1747 3041.09,-1673 3041.09,-1633.18 3031.8,-1587.95 3026.95,-1559.45"/>
<polygon fill="black" stroke="black" points="3030.44,-1559.15 3025.42,-1549.82 3023.53,-1560.25 3030.44,-1559.15"/>
</g>
<!-- node20&#45;&gt;node25 -->
<g id="edge167" class="edge">
<title>node20&#45;&gt;node25</title>
<path fill="none" stroke="black" d="M3011.19,-1872.35C3030.78,-1846.65 3059.09,-1795.23 3059.09,-1747 3059.09,-1747 3059.09,-1747 3059.09,-1673 3059.09,-1632.57 3049.51,-1586.55 3040.19,-1558.14"/>
<polygon fill="black" stroke="black" points="3043.54,-1557.13 3036.88,-1548.89 3036.95,-1559.48 3043.54,-1557.13"/>
</g>
<!-- node26 -->
<g id="node27" class="node">
<title>node26</title>
<ellipse fill="none" stroke="black" cx="3026.09" cy="-1458" rx="32.93" ry="18"/>
<text text-anchor="middle" x="3026.09" y="-1452.95" font-family="Times New Roman,serif" font-size="14.00">return</text>
</g>
<!-- node20&#45;&gt;node26 -->
<g id="edge84" class="edge">
<title>node20&#45;&gt;node26</title>
<path fill="none" stroke="black" d="M3016.95,-1872.58C3047.29,-1848.69 3097.09,-1801.21 3097.09,-1747 3097.09,-1747 3097.09,-1747 3097.09,-1601 3097.09,-1560.14 3093.47,-1547.96 3074.09,-1512 3068.17,-1501.02 3059.5,-1490.49 3051.15,-1481.75"/>
<polygon fill="black" stroke="black" points="3053.65,-1479.3 3044.1,-1474.73 3048.71,-1484.27 3053.65,-1479.3"/>
</g>
<!-- node27 -->
<g id="node28" class="node">
<title>node27</title>
<ellipse fill="none" stroke="black" cx="3080.09" cy="-1386" rx="27" ry="18"/>
<text text-anchor="middle" x="3080.09" y="-1380.95" font-family="Times New Roman,serif" font-size="14.00">a+b</text>
</g>
<!-- node20&#45;&gt;node27 -->
<g id="edge94" class="edge">
<title>node20&#45;&gt;node27</title>
<path fill="none" stroke="black" d="M3027.5,-1873.61C3069.2,-1851.83 3135.09,-1807.8 3135.09,-1747 3135.09,-1747 3135.09,-1747 3135.09,-1529 3135.09,-1485.87 3112.75,-1440.03 3096.54,-1412.46"/>
<polygon fill="black" stroke="black" points="3099.66,-1410.86 3091.48,-1404.13 3093.68,-1414.49 3099.66,-1410.86"/>
</g>
<!-- node28 -->
<g id="node29" class="node">
<title>node28</title>
<ellipse fill="none" stroke="black" cx="3135.09" cy="-1314" rx="27" ry="18"/>
<text text-anchor="middle" x="3135.09" y="-1308.95" font-family="Times New Roman,serif" font-size="14.00">;</text>
</g>
<!-- node20&#45;&gt;node28 -->
<g id="edge95" class="edge">
<title>node20&#45;&gt;node28</title>
<path fill="none" stroke="black" d="M3039.26,-1875.2C3092.28,-1855.88 3173.09,-1815.23 3173.09,-1747 3173.09,-1747 3173.09,-1747 3173.09,-1457 3173.09,-1415.95 3158.09,-1370.43 3146.94,-1342.26"/>
<polygon fill="black" stroke="black" points="3150.2,-1340.99 3143.17,-1333.06 3143.72,-1343.64 3150.2,-1340.99"/>
</g>
<!-- node29 -->
<g id="node30" class="node">
<title>node29</title>
<ellipse fill="none" stroke="black" cx="3135.09" cy="-1242" rx="27" ry="18"/>
<text text-anchor="middle" x="3135.09" y="-1236.95" font-family="Times New Roman,serif" font-size="14.00">a+b</text>
</g>
<!-- node20&#45;&gt;node29 -->
<g id="edge96" class="edge">
<title>node20&#45;&gt;node29</title>
<path fill="none" stroke="black" d="M3050.54,-1877.75C3114.83,-1861.26 3211.09,-1823.76 3211.09,-1747 3211.09,-1747 3211.09,-1747 3211.09,-1385 3211.09,-1338.73 3179.33,-1292.94 3156.87,-1266.35"/>
<polygon fill="black" stroke="black" points="3159.59,-1264.14 3150.38,-1258.91 3154.32,-1268.75 3159.59,-1264.14"/>
</g>
<!-- node30 -->
<g id="node31" class="node">
<title>node30</title>
<ellipse fill="none" stroke="black" cx="3135.09" cy="-1170" rx="27" ry="18"/>
<text text-anchor="middle" x="3135.09" y="-1164.95" font-family="Times New Roman,serif" font-size="14.00">,</text>
</g>
<!-- node20&#45;&gt;node30 -->
<g id="edge97" class="edge">
<title>node20&#45;&gt;node30</title>
<path fill="none" stroke="black" d="M3059.76,-1881.09C3135.31,-1867.9 3249.09,-1833.65 3249.09,-1747 3249.09,-1747 3249.09,-1747 3249.09,-1313 3249.09,-1258.62 3197.61,-1213.2 3163.84,-1189.26"/>
<polygon fill="black" stroke="black" points="3165.9,-1186.43 3155.67,-1183.67 3161.95,-1192.2 3165.9,-1186.43"/>
</g>
<!-- node31 -->
<g id="node32" class="node">
<title>node31</title>
<ellipse fill="none" stroke="black" cx="3135.09" cy="-1098" rx="27" ry="18"/>
<text text-anchor="middle" x="3135.09" y="-1092.95" font-family="Times New Roman,serif" font-size="14.00">a</text>
</g>
<!-- node20&#45;&gt;node31 -->
<g id="edge107" class="edge">
<title>node20&#45;&gt;node31</title>
<path fill="none" stroke="black" d="M3058.81,-1880.65C3118.42,-1871.84 3201.38,-1856.41 3227.09,-1836 3254.95,-1813.88 3253.87,-1798.62 3262.09,-1764 3282.61,-1677.58 3355.19,-1756.5 3263.09,-1296 3248.56,-1223.37 3190.23,-1154.64 3157.55,-1120.84"/>
<polygon fill="black" stroke="black" points="3160.41,-1118.76 3150.9,-1114.09 3155.43,-1123.67 3160.41,-1118.76"/>
</g>
<!-- node21&#45;&gt;node22 -->
<g id="edge61" class="edge">
<title>node21&#45;&gt;node22</title>
<path fill="none" stroke="black" d="M2749.11,-1799.7C2753.83,-1790.89 2761.55,-1780.06 2769.79,-1770.52"/>
<polygon fill="black" stroke="black" points="2772.22,-1773.05 2776.41,-1763.32 2767.06,-1768.31 2772.22,-1773.05"/>
</g>
<!-- node21&#45;&gt;node22 -->
<g id="edge130" class="edge">
<title>node21&#45;&gt;node22</title>
<path fill="none" stroke="black" d="M2760.68,-1800.05C2766.74,-1791.89 2774.15,-1781.91 2780.9,-1772.82"/>
<polygon fill="black" stroke="black" points="2783.56,-1775.12 2786.71,-1765 2777.94,-1770.94 2783.56,-1775.12"/>
</g>
<!-- node21&#45;&gt;node22 -->
<g id="edge169" class="edge">
<title>node21&#45;&gt;node22</title>
<path fill="none" stroke="black" d="M2771.41,-1801.12C2779.17,-1793.14 2787.07,-1783.26 2793.12,-1774.14"/>
<polygon fill="black" stroke="black" points="2796.11,-1775.96 2798.29,-1765.59 2790.12,-1772.34 2796.11,-1775.96"/>
</g>
<!-- node21&#45;&gt;node23 -->
<g id="edge187" class="edge">
<title>node21&#45;&gt;node23</title>
<path fill="none" stroke="black" d="M2741.7,-1799.63C2735.94,-1780.94 2729.93,-1750.84 2741.09,-1728 2748.81,-1712.2 2763.76,-1699.74 2777.69,-1690.88"/>
<polygon fill="black" stroke="black" points="2779.39,-1693.94 2786.22,-1685.84 2775.83,-1687.91 2779.39,-1693.94"/>
</g>
<!-- node22&#45;&gt;node23 -->
<g id="edge36" class="edge">
<title>node22&#45;&gt;node23</title>
<path fill="none" stroke="black" d="M2790.51,-1728.05C2789.82,-1719.86 2790.67,-1709.85 2792.71,-1700.74"/>
<polygon fill="black" stroke="black" points="2796.01,-1701.92 2795.46,-1691.34 2789.29,-1699.95 2796.01,-1701.92"/>
</g>
<!-- node22&#45;&gt;node23 -->
<g id="edge142" class="edge">
<title>node22&#45;&gt;node23</title>
<path fill="none" stroke="black" d="M2802.31,-1727.7C2803.26,-1720.32 2804.39,-1711.52 2805.46,-1703.25"/>
<polygon fill="black" stroke="black" points="2808.89,-1703.97 2806.7,-1693.61 2801.95,-1703.08 2808.89,-1703.97"/>
</g>
<!-- node22&#45;&gt;node23 -->
<g id="edge189" class="edge">
<title>node22&#45;&gt;node23</title>
<path fill="none" stroke="black" d="M2813.9,-1728.41C2816.6,-1720.63 2818.33,-1711.15 2818.78,-1702.35"/>
<polygon fill="black" stroke="black" points="2822.28,-1702.44 2818.6,-1692.5 2815.28,-1702.56 2822.28,-1702.44"/>
</g>
<!-- node23&#45;&gt;node24 -->
<g id="edge122" class="edge">
<title>node23&#45;&gt;node24</title>
<path fill="none" stroke="black" d="M2826,-1659.5C2841.96,-1648.99 2866.17,-1634.24 2886.73,-1622.45"/>
<polygon fill="black" stroke="black" points="2888.18,-1625.65 2895.16,-1617.68 2884.73,-1619.56 2888.18,-1625.65"/>
</g>
<!-- node23&#45;&gt;node24 -->
<g id="edge170" class="edge">
<title>node23&#45;&gt;node24</title>
<path fill="none" stroke="black" d="M2830.88,-1662.82C2849.15,-1652.9 2875.15,-1637.48 2895.29,-1624.79"/>
<polygon fill="black" stroke="black" points="2897.11,-1627.77 2903.65,-1619.44 2893.34,-1621.88 2897.11,-1627.77"/>
</g>
<!-- node23&#45;&gt;node25 -->
<g id="edge171" class="edge">
<title>node23&#45;&gt;node25</title>
<path fill="none" stroke="black" d="M2836.33,-1671.49C2873.79,-1668.06 2941.43,-1656.81 2984.09,-1620 3002.28,-1604.3 3013.15,-1579 3019.27,-1559.38"/>
<polygon fill="black" stroke="black" points="3022.63,-1560.35 3021.99,-1549.77 3015.9,-1558.43 3022.63,-1560.35"/>
</g>
<!-- node23&#45;&gt;node26 -->
<g id="edge172" class="edge">
<title>node23&#45;&gt;node26</title>
<path fill="none" stroke="black" d="M2817.67,-1656.59C2827.85,-1637.95 2845.98,-1607.12 2866.09,-1584 2904.51,-1539.82 2960.43,-1500.35 2994.97,-1478.07"/>
<polygon fill="black" stroke="black" points="2996.7,-1481.12 3003.26,-1472.8 2992.94,-1475.22 2996.7,-1481.12"/>
</g>
<!-- node23&#45;&gt;node27 -->
<g id="edge186" class="edge">
<title>node23&#45;&gt;node27</title>
<path fill="none" stroke="black" d="M2812.19,-1655.82C2816.01,-1637.3 2823.56,-1607.33 2836.09,-1584 2875.35,-1510.85 2888.52,-1489.62 2955.09,-1440 2982.21,-1419.78 3018.2,-1405.58 3044.6,-1397"/>
<polygon fill="black" stroke="black" points="3045.32,-1400.44 3053.82,-1394.11 3043.23,-1393.76 3045.32,-1400.44"/>
</g>
<!-- node24&#45;&gt;node25 -->
<g id="edge37" class="edge">
<title>node24&#45;&gt;node25</title>
<path fill="none" stroke="black" d="M2932.31,-1583.7C2945.05,-1572.46 2966.18,-1557.91 2985.76,-1546.95"/>
<polygon fill="black" stroke="black" points="2987.31,-1550.1 2994.48,-1542.3 2984.01,-1543.92 2987.31,-1550.1"/>
</g>
<!-- node24&#45;&gt;node25 -->
<g id="edge70" class="edge">
<title>node24&#45;&gt;node25</title>
<path fill="none" stroke="black" d="M2942.71,-1584.76C2956.37,-1574.5 2975.48,-1561.18 2992.03,-1550.37"/>
<polygon fill="black" stroke="black" points="2993.63,-1553.5 3000.14,-1545.15 2989.84,-1547.61 2993.63,-1553.5"/>
</g>
<!-- node24&#45;&gt;node25 -->
<g id="edge134" class="edge">
<title>node24&#45;&gt;node25</title>
<path fill="none" stroke="black" d="M2951.61,-1586.5C2966.58,-1576.97 2985.09,-1564.32 2999.98,-1553.5"/>
<polygon fill="black" stroke="black" points="3001.99,-1556.36 3007.95,-1547.6 2997.83,-1550.73 3001.99,-1556.36"/>
</g>
<!-- node24&#45;&gt;node25 -->
<g id="edge190" class="edge">
<title>node24&#45;&gt;node25</title>
<path fill="none" stroke="black" d="M2959.09,-1588.49C2976.57,-1579.26 2996.24,-1566.42 3010.52,-1555.21"/>
<polygon fill="black" stroke="black" points="3012.42,-1558.18 3017.89,-1549.11 3007.96,-1552.79 3012.42,-1558.18"/>
</g>
<!-- node24&#45;&gt;node26 -->
<g id="edge41" class="edge">
<title>node24&#45;&gt;node26</title>
<path fill="none" stroke="black" d="M2927.41,-1583.63C2934.94,-1565.21 2951.66,-1535.57 2969.09,-1512 2977.31,-1500.88 2987.46,-1489.41 2997.05,-1479.99"/>
<polygon fill="black" stroke="black" points="2999.25,-1482.72 3004.16,-1473.34 2994.47,-1477.61 2999.25,-1482.72"/>
</g>
<!-- node24&#45;&gt;node26 -->
<g id="edge191" class="edge">
<title>node24&#45;&gt;node26</title>
<path fill="none" stroke="black" d="M2940.1,-1584.64C2952.33,-1566.3 2969.34,-1536.01 2987.09,-1512 2994.13,-1502.47 3002.6,-1492.68 3009.98,-1484.14"/>
<polygon fill="black" stroke="black" points="3012.6,-1486.46 3016.46,-1476.6 3007.29,-1481.9 3012.6,-1486.46"/>
</g>
<!-- node24&#45;&gt;node27 -->
<g id="edge42" class="edge">
<title>node24&#45;&gt;node27</title>
<path fill="none" stroke="black" d="M2921.77,-1583.66C2922.34,-1551.4 2935.97,-1481.67 2975.09,-1440 2993.9,-1419.96 3022.03,-1405.67 3044.59,-1397.01"/>
<polygon fill="black" stroke="black" points="3045.51,-1400.4 3053.73,-1393.73 3043.14,-1393.81 3045.51,-1400.4"/>
</g>
<!-- node24&#45;&gt;node27 -->
<g id="edge202" class="edge">
<title>node24&#45;&gt;node27</title>
<path fill="none" stroke="black" d="M2932.05,-1584.16C2940.2,-1552.13 2953.77,-1481.89 2993.09,-1440 3008.59,-1423.48 3030.42,-1410.87 3048.44,-1402.1"/>
<polygon fill="black" stroke="black" points="3049.86,-1405.3 3057.44,-1397.9 3046.9,-1398.96 3049.86,-1405.3"/>
</g>
<!-- node25&#45;&gt;node26 -->
<g id="edge123" class="edge">
<title>node25&#45;&gt;node26</title>
<path fill="none" stroke="black" d="M3020.21,-1512.05C3019.42,-1504.57 3019.16,-1495.58 3019.45,-1487.14"/>
<polygon fill="black" stroke="black" points="3022.94,-1487.51 3020.12,-1477.3 3015.95,-1487.04 3022.94,-1487.51"/>
</g>
<!-- node25&#45;&gt;node26 -->
<g id="edge146" class="edge">
<title>node25&#45;&gt;node26</title>
<path fill="none" stroke="black" d="M3031.97,-1512.05C3032.76,-1504.57 3033.01,-1495.58 3032.72,-1487.14"/>
<polygon fill="black" stroke="black" points="3036.22,-1487.04 3032.05,-1477.3 3029.24,-1487.51 3036.22,-1487.04"/>
</g>
<!-- node26&#45;&gt;node27 -->
<g id="edge38" class="edge">
<title>node26&#45;&gt;node27</title>
<path fill="none" stroke="black" d="M3027.6,-1439.7C3033.25,-1429.7 3042.83,-1417.09 3052.59,-1406.72"/>
<polygon fill="black" stroke="black" points="3055.04,-1409.22 3059.68,-1399.7 3050.12,-1404.24 3055.04,-1409.22"/>
</g>
<!-- node26&#45;&gt;node27 -->
<g id="edge71" class="edge">
<title>node26&#45;&gt;node27</title>
<path fill="none" stroke="black" d="M3038.34,-1441.12C3045.13,-1432.31 3053.72,-1421.18 3061.34,-1411.31"/>
<polygon fill="black" stroke="black" points="3063.99,-1413.59 3067.33,-1403.54 3058.45,-1409.32 3063.99,-1413.59"/>
</g>
<!-- node26&#45;&gt;node27 -->
<g id="edge135" class="edge">
<title>node26&#45;&gt;node27</title>
<path fill="none" stroke="black" d="M3047.07,-1443.83C3056.01,-1435.37 3065.51,-1424.07 3072.59,-1413.78"/>
<polygon fill="black" stroke="black" points="3075.36,-1415.95 3077.74,-1405.62 3069.44,-1412.21 3075.36,-1415.95"/>
</g>
<!-- node26&#45;&gt;node28 -->
<g id="edge76" class="edge">
<title>node26&#45;&gt;node28</title>
<path fill="none" stroke="black" d="M3053.51,-1447.78C3073.88,-1439.5 3100.72,-1425.33 3116.09,-1404 3128.67,-1386.55 3133.24,-1362.48 3134.76,-1343.77"/>
<polygon fill="black" stroke="black" points="3138.25,-1344.06 3135.3,-1333.89 3131.26,-1343.68 3138.25,-1344.06"/>
</g>
<!-- node26&#45;&gt;node29 -->
<g id="edge77" class="edge">
<title>node26&#45;&gt;node29</title>
<path fill="none" stroke="black" d="M3027.97,-1439.84C3030.33,-1421.6 3035.2,-1392.11 3044.09,-1368 3056.75,-1333.65 3062.33,-1325.44 3084.09,-1296 3092.22,-1284.99 3102.49,-1273.91 3111.67,-1264.75"/>
<polygon fill="black" stroke="black" points="3113.9,-1267.47 3118.62,-1257.99 3109.02,-1262.45 3113.9,-1267.47"/>
</g>
<!-- node27&#45;&gt;node28 -->
<g id="edge85" class="edge">
<title>node27&#45;&gt;node28</title>
<path fill="none" stroke="black" d="M3069.52,-1369.12C3073.44,-1357.04 3086.67,-1340.6 3101.97,-1329.01"/>
<polygon fill="black" stroke="black" points="3103.56,-1332.16 3109.9,-1323.67 3099.65,-1326.35 3103.56,-1332.16"/>
</g>
<!-- node27&#45;&gt;node28 -->
<g id="edge124" class="edge">
<title>node27&#45;&gt;node28</title>
<path fill="none" stroke="black" d="M3081.85,-1367.7C3087.7,-1357.6 3097.59,-1344.84 3107.61,-1334.41"/>
<polygon fill="black" stroke="black" points="3109.79,-1337.17 3114.51,-1327.69 3104.9,-1332.16 3109.79,-1337.17"/>
</g>
<!-- node27&#45;&gt;node28 -->
<g id="edge147" class="edge">
<title>node27&#45;&gt;node28</title>
<path fill="none" stroke="black" d="M3092.29,-1369.46C3099.2,-1360.67 3108,-1349.48 3115.81,-1339.53"/>
<polygon fill="black" stroke="black" points="3118.55,-1341.71 3121.98,-1331.68 3113.05,-1337.38 3118.55,-1341.71"/>
</g>
<!-- node27&#45;&gt;node28 -->
<g id="edge173" class="edge">
<title>node27&#45;&gt;node28</title>
<path fill="none" stroke="black" d="M3099.5,-1373.44C3109.02,-1364.88 3119.41,-1352.85 3127.1,-1341.93"/>
<polygon fill="black" stroke="black" points="3129.99,-1343.92 3132.48,-1333.62 3124.11,-1340.12 3129.99,-1343.92"/>
</g>
<!-- node27&#45;&gt;node28 -->
<g id="edge192" class="edge">
<title>node27&#45;&gt;node28</title>
<path fill="none" stroke="black" d="M3103.91,-1377.24C3118.69,-1368.56 3132.94,-1354.04 3140.72,-1341.21"/>
<polygon fill="black" stroke="black" points="3143.8,-1342.88 3144.96,-1332.35 3137.49,-1339.86 3143.8,-1342.88"/>
</g>
<!-- node27&#45;&gt;node29 -->
<g id="edge179" class="edge">
<title>node27&#45;&gt;node29</title>
<path fill="none" stroke="black" d="M3081.78,-1367.67C3084.04,-1349.29 3088.98,-1319.69 3099.09,-1296 3103.34,-1286.04 3109.56,-1275.99 3115.65,-1267.36"/>
<polygon fill="black" stroke="black" points="3118.31,-1269.64 3121.44,-1259.52 3112.68,-1265.48 3118.31,-1269.64"/>
</g>
<!-- node27&#45;&gt;node30 -->
<g id="edge180" class="edge">
<title>node27&#45;&gt;node30</title>
<path fill="none" stroke="black" d="M3079.04,-1367.75C3077.86,-1337.39 3078.32,-1272.97 3099.09,-1224 3103.32,-1214.03 3109.53,-1203.98 3115.62,-1195.35"/>
<polygon fill="black" stroke="black" points="3118.29,-1197.63 3121.42,-1187.51 3112.66,-1193.46 3118.29,-1197.63"/>
</g>
<!-- node28&#45;&gt;node29 -->
<g id="edge39" class="edge">
<title>node28&#45;&gt;node29</title>
<path fill="none" stroke="black" d="M3118.71,-1299.5C3114.91,-1290.4 3113.91,-1278.13 3115.7,-1267.35"/>
<polygon fill="black" stroke="black" points="3119.01,-1268.49 3118.32,-1257.91 3112.27,-1266.61 3119.01,-1268.49"/>
</g>
<!-- node28&#45;&gt;node29 -->
<g id="edge43" class="edge">
<title>node28&#45;&gt;node29</title>
<path fill="none" stroke="black" d="M3129.21,-1296.05C3128.42,-1288.57 3128.16,-1279.58 3128.45,-1271.14"/>
<polygon fill="black" stroke="black" points="3131.94,-1271.51 3129.12,-1261.3 3124.95,-1271.04 3131.94,-1271.51"/>
</g>
<!-- node28&#45;&gt;node29 -->
<g id="edge72" class="edge">
<title>node28&#45;&gt;node29</title>
<path fill="none" stroke="black" d="M3140.97,-1296.05C3141.76,-1288.57 3142.01,-1279.58 3141.72,-1271.14"/>
<polygon fill="black" stroke="black" points="3145.22,-1271.04 3141.05,-1261.3 3138.24,-1271.51 3145.22,-1271.04"/>
</g>
<!-- node28&#45;&gt;node29 -->
<g id="edge136" class="edge">
<title>node28&#45;&gt;node29</title>
<path fill="none" stroke="black" d="M3151.46,-1299.5C3155.26,-1290.4 3156.27,-1278.13 3154.48,-1267.35"/>
<polygon fill="black" stroke="black" points="3157.91,-1266.61 3151.85,-1257.91 3151.16,-1268.49 3157.91,-1266.61"/>
</g>
<!-- node29&#45;&gt;node30 -->
<g id="edge86" class="edge">
<title>node29&#45;&gt;node30</title>
<path fill="none" stroke="black" d="M3114.63,-1229.75C3107.91,-1219.69 3106.37,-1204.68 3110,-1192.34"/>
<polygon fill="black" stroke="black" points="3113.14,-1193.91 3114.17,-1183.36 3106.79,-1190.96 3113.14,-1193.91"/>
</g>
<!-- node29&#45;&gt;node30 -->
<g id="edge125" class="edge">
<title>node29&#45;&gt;node30</title>
<path fill="none" stroke="black" d="M3123.65,-1225.46C3121.71,-1217.31 3121.14,-1207.08 3121.93,-1197.7"/>
<polygon fill="black" stroke="black" points="3125.36,-1198.4 3123.43,-1187.99 3118.45,-1197.34 3125.36,-1198.4"/>
</g>
<!-- node29&#45;&gt;node30 -->
<g id="edge148" class="edge">
<title>node29&#45;&gt;node30</title>
<path fill="none" stroke="black" d="M3135.09,-1223.7C3135.09,-1216.41 3135.09,-1207.73 3135.09,-1199.54"/>
<polygon fill="black" stroke="black" points="3138.59,-1199.62 3135.09,-1189.62 3131.59,-1199.62 3138.59,-1199.62"/>
</g>
<!-- node29&#45;&gt;node30 -->
<g id="edge174" class="edge">
<title>node29&#45;&gt;node30</title>
<path fill="none" stroke="black" d="M3146.53,-1225.46C3148.46,-1217.31 3149.03,-1207.08 3148.24,-1197.7"/>
<polygon fill="black" stroke="black" points="3151.73,-1197.34 3146.75,-1187.99 3144.81,-1198.4 3151.73,-1197.34"/>
</g>
<!-- node29&#45;&gt;node30 -->
<g id="edge193" class="edge">
<title>node29&#45;&gt;node30</title>
<path fill="none" stroke="black" d="M3155.55,-1229.75C3162.27,-1219.69 3163.81,-1204.68 3160.17,-1192.34"/>
<polygon fill="black" stroke="black" points="3163.39,-1190.96 3156.01,-1183.36 3157.04,-1193.91 3163.39,-1190.96"/>
</g>
<!-- node29&#45;&gt;node31 -->
<g id="edge87" class="edge">
<title>node29&#45;&gt;node31</title>
<path fill="none" stroke="black" d="M3116.17,-1228.65C3105.9,-1218.58 3094.86,-1203.52 3090.09,-1188 3085.38,-1172.71 3085.38,-1167.29 3090.09,-1152 3093.67,-1140.36 3100.77,-1128.98 3108.43,-1119.77"/>
<polygon fill="black" stroke="black" points="3110.96,-1122.19 3115.15,-1112.46 3105.8,-1117.46 3110.96,-1122.19"/>
</g>
<!-- node29&#45;&gt;node31 -->
<g id="edge197" class="edge">
<title>node29&#45;&gt;node31</title>
<path fill="none" stroke="black" d="M3127.78,-1224.24C3120.99,-1214.44 3112.21,-1201.4 3108.09,-1188 3103.38,-1172.71 3103.38,-1167.29 3108.09,-1152 3110.98,-1142.58 3116.19,-1133.33 3121.38,-1125.27"/>
<polygon fill="black" stroke="black" points="3124.26,-1127.26 3126.93,-1117.01 3118.45,-1123.36 3124.26,-1127.26"/>
</g>
<!-- node32 -->
<g id="node33" class="node">
<title>node32</title>
<ellipse fill="none" stroke="black" cx="3135.09" cy="-1026" rx="27" ry="18"/>
<text text-anchor="middle" x="3135.09" y="-1020.95" font-family="Times New Roman,serif" font-size="14.00">+</text>
</g>
<!-- node29&#45;&gt;node32 -->
<g id="edge93" class="edge">
<title>node29&#45;&gt;node32</title>
<path fill="none" stroke="black" d="M3142.4,-1224.24C3149.18,-1214.44 3157.97,-1201.4 3162.09,-1188 3176.2,-1142.12 3176.2,-1125.88 3162.09,-1080 3159.19,-1070.58 3153.99,-1061.33 3148.79,-1053.27"/>
<polygon fill="black" stroke="black" points="3151.73,-1051.36 3143.24,-1045.01 3145.92,-1055.26 3151.73,-1051.36"/>
</g>
<!-- node29&#45;&gt;node32 -->
<g id="edge198" class="edge">
<title>node29&#45;&gt;node32</title>
<path fill="none" stroke="black" d="M3154,-1228.65C3164.28,-1218.58 3175.31,-1203.52 3180.09,-1188 3194.2,-1142.12 3194.2,-1125.88 3180.09,-1080 3176.51,-1068.36 3169.4,-1056.98 3161.74,-1047.77"/>
<polygon fill="black" stroke="black" points="3164.37,-1045.46 3155.03,-1040.46 3159.22,-1050.19 3164.37,-1045.46"/>
</g>
<!-- node30&#45;&gt;node31 -->
<g id="edge40" class="edge">
<title>node30&#45;&gt;node31</title>
<path fill="none" stroke="black" d="M3114.63,-1157.75C3107.91,-1147.69 3106.37,-1132.68 3110,-1120.34"/>
<polygon fill="black" stroke="black" points="3113.14,-1121.91 3114.17,-1111.36 3106.79,-1118.96 3113.14,-1121.91"/>
</g>
<!-- node30&#45;&gt;node31 -->
<g id="edge44" class="edge">
<title>node30&#45;&gt;node31</title>
<path fill="none" stroke="black" d="M3123.65,-1153.46C3121.71,-1145.31 3121.14,-1135.08 3121.93,-1125.7"/>
<polygon fill="black" stroke="black" points="3125.36,-1126.4 3123.43,-1115.99 3118.45,-1125.34 3125.36,-1126.4"/>
</g>
<!-- node30&#45;&gt;node31 -->
<g id="edge73" class="edge">
<title>node30&#45;&gt;node31</title>
<path fill="none" stroke="black" d="M3135.09,-1151.7C3135.09,-1144.41 3135.09,-1135.73 3135.09,-1127.54"/>
<polygon fill="black" stroke="black" points="3138.59,-1127.62 3135.09,-1117.62 3131.59,-1127.62 3138.59,-1127.62"/>
</g>
<!-- node30&#45;&gt;node31 -->
<g id="edge78" class="edge">
<title>node30&#45;&gt;node31</title>
<path fill="none" stroke="black" d="M3146.53,-1153.46C3148.46,-1145.31 3149.03,-1135.08 3148.24,-1125.7"/>
<polygon fill="black" stroke="black" points="3151.73,-1125.34 3146.75,-1115.99 3144.81,-1126.4 3151.73,-1125.34"/>
</g>
<!-- node30&#45;&gt;node31 -->
<g id="edge137" class="edge">
<title>node30&#45;&gt;node31</title>
<path fill="none" stroke="black" d="M3155.55,-1157.75C3162.27,-1147.69 3163.81,-1132.68 3160.17,-1120.34"/>
<polygon fill="black" stroke="black" points="3163.39,-1118.96 3156.01,-1111.36 3157.04,-1121.91 3163.39,-1118.96"/>
</g>
<!-- node31&#45;&gt;node32 -->
<g id="edge98" class="edge">
<title>node31&#45;&gt;node32</title>
<path fill="none" stroke="black" d="M3112.02,-1088.42C3100.58,-1077.61 3098.33,-1058.76 3105.27,-1044.78"/>
<polygon fill="black" stroke="black" points="3107.97,-1047.01 3111.05,-1036.88 3102.32,-1042.88 3107.97,-1047.01"/>
</g>
<!-- node31&#45;&gt;node32 -->
<g id="edge126" class="edge">
<title>node31&#45;&gt;node32</title>
<path fill="none" stroke="black" d="M3118.71,-1083.5C3114.91,-1074.4 3113.91,-1062.13 3115.7,-1051.35"/>
<polygon fill="black" stroke="black" points="3119.01,-1052.49 3118.32,-1041.91 3112.27,-1050.61 3119.01,-1052.49"/>
</g>
<!-- node31&#45;&gt;node32 -->
<g id="edge149" class="edge">
<title>node31&#45;&gt;node32</title>
<path fill="none" stroke="black" d="M3129.21,-1080.05C3128.42,-1072.57 3128.16,-1063.58 3128.45,-1055.14"/>
<polygon fill="black" stroke="black" points="3131.94,-1055.51 3129.12,-1045.3 3124.95,-1055.04 3131.94,-1055.51"/>
</g>
<!-- node31&#45;&gt;node32 -->
<g id="edge175" class="edge">
<title>node31&#45;&gt;node32</title>
<path fill="none" stroke="black" d="M3140.97,-1080.05C3141.76,-1072.57 3142.01,-1063.58 3141.72,-1055.14"/>
<polygon fill="black" stroke="black" points="3145.22,-1055.04 3141.05,-1045.3 3138.24,-1055.51 3145.22,-1055.04"/>
</g>
<!-- node31&#45;&gt;node32 -->
<g id="edge181" class="edge">
<title>node31&#45;&gt;node32</title>
<path fill="none" stroke="black" d="M3151.46,-1083.5C3155.26,-1074.4 3156.27,-1062.13 3154.48,-1051.35"/>
<polygon fill="black" stroke="black" points="3157.91,-1050.61 3151.85,-1041.91 3151.16,-1052.49 3157.91,-1050.61"/>
</g>
<!-- node31&#45;&gt;node32 -->
<g id="edge194" class="edge">
<title>node31&#45;&gt;node32</title>
<path fill="none" stroke="black" d="M3158.16,-1088.42C3169.6,-1077.61 3171.85,-1058.76 3164.91,-1044.78"/>
<polygon fill="black" stroke="black" points="3167.85,-1042.88 3159.13,-1036.88 3162.2,-1047.01 3167.85,-1042.88"/>
</g>
<!-- node33 -->
<g id="node34" class="node">
<title>node33</title>
<ellipse fill="none" stroke="black" cx="3135.09" cy="-954" rx="27" ry="18"/>
<text text-anchor="middle" x="3135.09" y="-948.95" font-family="Times New Roman,serif" font-size="14.00">b</text>
</g>
<!-- node32&#45;&gt;node33 -->
<g id="edge45" class="edge">
<title>node32&#45;&gt;node33</title>
<path fill="none" stroke="black" d="M3114.63,-1013.75C3107.91,-1003.69 3106.37,-988.68 3110,-976.34"/>
<polygon fill="black" stroke="black" points="3113.14,-977.91 3114.17,-967.36 3106.79,-974.96 3113.14,-977.91"/>
</g>
<!-- node32&#45;&gt;node33 -->
<g id="edge74" class="edge">
<title>node32&#45;&gt;node33</title>
<path fill="none" stroke="black" d="M3123.65,-1009.46C3121.71,-1001.31 3121.14,-991.08 3121.93,-981.7"/>
<polygon fill="black" stroke="black" points="3125.36,-982.4 3123.43,-971.99 3118.45,-981.34 3125.36,-982.4"/>
</g>
<!-- node32&#45;&gt;node33 -->
<g id="edge79" class="edge">
<title>node32&#45;&gt;node33</title>
<path fill="none" stroke="black" d="M3135.09,-1007.7C3135.09,-1000.41 3135.09,-991.73 3135.09,-983.54"/>
<polygon fill="black" stroke="black" points="3138.59,-983.62 3135.09,-973.62 3131.59,-983.62 3138.59,-983.62"/>
</g>
<!-- node32&#45;&gt;node33 -->
<g id="edge88" class="edge">
<title>node32&#45;&gt;node33</title>
<path fill="none" stroke="black" d="M3146.53,-1009.46C3148.46,-1001.31 3149.03,-991.08 3148.24,-981.7"/>
<polygon fill="black" stroke="black" points="3151.73,-981.34 3146.75,-971.99 3144.81,-982.4 3151.73,-981.34"/>
</g>
<!-- node32&#45;&gt;node33 -->
<g id="edge138" class="edge">
<title>node32&#45;&gt;node33</title>
<path fill="none" stroke="black" d="M3155.55,-1013.75C3162.27,-1003.69 3163.81,-988.68 3160.17,-976.34"/>
<polygon fill="black" stroke="black" points="3163.39,-974.96 3156.01,-967.36 3157.04,-977.91 3163.39,-974.96"/>
</g>
<!-- node34 -->
<g id="node35" class="node">
<title>node34</title>
<ellipse fill="none" stroke="black" cx="3135.09" cy="-882" rx="27" ry="18"/>
<text text-anchor="middle" x="3135.09" y="-876.95" font-family="Times New Roman,serif" font-size="14.00">true</text>
</g>
<!-- node33&#45;&gt;node34 -->
<g id="edge99" class="edge">
<title>node33&#45;&gt;node34</title>
<path fill="none" stroke="black" d="M3112.02,-944.42C3100.58,-933.61 3098.33,-914.76 3105.27,-900.78"/>
<polygon fill="black" stroke="black" points="3107.97,-903.01 3111.05,-892.88 3102.32,-898.88 3107.97,-903.01"/>
</g>
<!-- node33&#45;&gt;node34 -->
<g id="edge150" class="edge">
<title>node33&#45;&gt;node34</title>
<path fill="none" stroke="black" d="M3118.71,-939.5C3114.91,-930.4 3113.91,-918.13 3115.7,-907.35"/>
<polygon fill="black" stroke="black" points="3119.01,-908.49 3118.32,-897.91 3112.27,-906.61 3119.01,-908.49"/>
</g>
<!-- node33&#45;&gt;node34 -->
<g id="edge176" class="edge">
<title>node33&#45;&gt;node34</title>
<path fill="none" stroke="black" d="M3129.21,-936.05C3128.42,-928.57 3128.16,-919.58 3128.45,-911.14"/>
<polygon fill="black" stroke="black" points="3131.94,-911.51 3129.12,-901.3 3124.95,-911.04 3131.94,-911.51"/>
</g>
<!-- node33&#45;&gt;node34 -->
<g id="edge182" class="edge">
<title>node33&#45;&gt;node34</title>
<path fill="none" stroke="black" d="M3140.97,-936.05C3141.76,-928.57 3142.01,-919.58 3141.72,-911.14"/>
<polygon fill="black" stroke="black" points="3145.22,-911.04 3141.05,-901.3 3138.24,-911.51 3145.22,-911.04"/>
</g>
<!-- node33&#45;&gt;node34 -->
<g id="edge195" class="edge">
<title>node33&#45;&gt;node34</title>
<path fill="none" stroke="black" d="M3151.46,-939.5C3155.26,-930.4 3156.27,-918.13 3154.48,-907.35"/>
<polygon fill="black" stroke="black" points="3157.91,-906.61 3151.85,-897.91 3151.16,-908.49 3157.91,-906.61"/>
</g>
<!-- node33&#45;&gt;node34 -->
<g id="edge199" class="edge">
<title>node33&#45;&gt;node34</title>
<path fill="none" stroke="black" d="M3158.16,-944.42C3169.6,-933.61 3171.85,-914.76 3164.91,-900.78"/>
<polygon fill="black" stroke="black" points="3167.85,-898.88 3159.13,-892.88 3162.2,-903.01 3167.85,-898.88"/>
</g>
<!-- node35 -->
<g id="node36" class="node">
<title>node35</title>
<ellipse fill="none" stroke="black" cx="3163.09" cy="-810" rx="27" ry="18"/>
<text text-anchor="middle" x="3163.09" y="-804.95" font-family="Times New Roman,serif" font-size="14.00">b</text>
</g>
<!-- node33&#45;&gt;node35 -->
<g id="edge100" class="edge">
<title>node33&#45;&gt;node35</title>
<path fill="none" stroke="black" d="M3142.4,-936.24C3149.18,-926.44 3157.97,-913.4 3162.09,-900 3168.09,-880.48 3165.8,-857.51 3163.39,-839.79"/>
<polygon fill="black" stroke="black" points="3166.87,-839.38 3162.01,-829.97 3159.94,-840.36 3166.87,-839.38"/>
</g>
<!-- node33&#45;&gt;node35 -->
<g id="edge151" class="edge">
<title>node33&#45;&gt;node35</title>
<path fill="none" stroke="black" d="M3154,-940.65C3164.28,-930.58 3175.31,-915.52 3180.09,-900 3186.37,-879.56 3183.57,-855.34 3178.24,-837.33"/>
<polygon fill="black" stroke="black" points="3181.56,-836.2 3174.95,-827.92 3174.95,-838.51 3181.56,-836.2"/>
</g>
<!-- node36 -->
<g id="node37" class="node">
<title>node36</title>
<ellipse fill="none" stroke="black" cx="3163.09" cy="-738" rx="27" ry="18"/>
<text text-anchor="middle" x="3163.09" y="-732.95" font-family="Times New Roman,serif" font-size="14.00">(</text>
</g>
<!-- node33&#45;&gt;node36 -->
<g id="edge106" class="edge">
<title>node33&#45;&gt;node36</title>
<path fill="none" stroke="black" d="M3151.3,-939.06C3163.57,-929.84 3179.18,-916.43 3187.09,-900 3207.91,-856.73 3204.2,-837.9 3190.09,-792 3187.19,-782.58 3181.99,-773.33 3176.79,-765.27"/>
<polygon fill="black" stroke="black" points="3179.73,-763.36 3171.24,-757.01 3173.92,-767.26 3179.73,-763.36"/>
</g>
<!-- node33&#45;&gt;node36 -->
<g id="edge152" class="edge">
<title>node33&#45;&gt;node36</title>
<path fill="none" stroke="black" d="M3158.04,-944.26C3174.76,-935.28 3195.54,-919.85 3205.09,-900 3225.91,-856.73 3222.2,-837.9 3208.09,-792 3204.51,-780.36 3197.4,-768.98 3189.74,-759.77"/>
<polygon fill="black" stroke="black" points="3192.37,-757.46 3183.03,-752.46 3187.22,-762.19 3192.37,-757.46"/>
</g>
<!-- node37 -->
<g id="node38" class="node">
<title>node37</title>
<ellipse fill="none" stroke="black" cx="3163.09" cy="-666" rx="27" ry="18"/>
<text text-anchor="middle" x="3163.09" y="-660.95" font-family="Times New Roman,serif" font-size="14.00">b</text>
</g>
<!-- node33&#45;&gt;node37 -->
<g id="edge166" class="edge">
<title>node33&#45;&gt;node37</title>
<path fill="none" stroke="black" d="M3121.34,-938.07C3113.13,-928.1 3103.47,-914.25 3099.09,-900 3094.38,-884.71 3097.55,-879.93 3099.09,-864 3105.34,-799.1 3102.04,-780.19 3127.09,-720 3131.25,-710 3137.45,-699.94 3143.54,-691.32"/>
<polygon fill="black" stroke="black" points="3146.21,-693.6 3149.35,-683.48 3140.58,-689.43 3146.21,-693.6"/>
</g>
<!-- node34&#45;&gt;node35 -->
<g id="edge75" class="edge">
<title>node34&#45;&gt;node35</title>
<path fill="none" stroke="black" d="M3130.11,-864.05C3131.78,-855.14 3135.86,-844.07 3140.93,-834.36"/>
<polygon fill="black" stroke="black" points="3143.91,-836.2 3145.99,-825.81 3137.88,-832.64 3143.91,-836.2"/>
</g>
<!-- node34&#45;&gt;node35 -->
<g id="edge80" class="edge">
<title>node34&#45;&gt;node35</title>
<path fill="none" stroke="black" d="M3141.72,-864.41C3144.86,-856.57 3148.69,-846.99 3152.23,-838.13"/>
<polygon fill="black" stroke="black" points="3155.47,-839.46 3155.94,-828.88 3148.97,-836.86 3155.47,-839.46"/>
</g>
<!-- node34&#45;&gt;node35 -->
<g id="edge89" class="edge">
<title>node34&#45;&gt;node35</title>
<path fill="none" stroke="black" d="M3151.4,-867.5C3156.86,-859.45 3161.86,-848.92 3165.1,-839.13"/>
<polygon fill="black" stroke="black" points="3168.44,-840.21 3167.63,-829.64 3161.67,-838.4 3168.44,-840.21"/>
</g>
<!-- node35&#45;&gt;node36 -->
<g id="edge177" class="edge">
<title>node35&#45;&gt;node36</title>
<path fill="none" stroke="black" d="M3146.71,-795.5C3142.91,-786.4 3141.91,-774.13 3143.7,-763.35"/>
<polygon fill="black" stroke="black" points="3147.01,-764.49 3146.32,-753.91 3140.27,-762.61 3147.01,-764.49"/>
</g>
<!-- node35&#45;&gt;node36 -->
<g id="edge183" class="edge">
<title>node35&#45;&gt;node36</title>
<path fill="none" stroke="black" d="M3157.21,-792.05C3156.42,-784.57 3156.16,-775.58 3156.45,-767.14"/>
<polygon fill="black" stroke="black" points="3159.94,-767.51 3157.12,-757.3 3152.95,-767.04 3159.94,-767.51"/>
</g>
<!-- node35&#45;&gt;node36 -->
<g id="edge196" class="edge">
<title>node35&#45;&gt;node36</title>
<path fill="none" stroke="black" d="M3168.97,-792.05C3169.76,-784.57 3170.01,-775.58 3169.72,-767.14"/>
<polygon fill="black" stroke="black" points="3173.22,-767.04 3169.05,-757.3 3166.24,-767.51 3173.22,-767.04"/>
</g>
<!-- node35&#45;&gt;node36 -->
<g id="edge200" class="edge">
<title>node35&#45;&gt;node36</title>
<path fill="none" stroke="black" d="M3179.46,-795.5C3183.26,-786.4 3184.27,-774.13 3182.48,-763.35"/>
<polygon fill="black" stroke="black" points="3185.91,-762.61 3179.85,-753.91 3179.16,-764.49 3185.91,-762.61"/>
</g>
<!-- node36&#45;&gt;node37 -->
<g id="edge81" class="edge">
<title>node36&#45;&gt;node37</title>
<path fill="none" stroke="black" d="M3151.65,-721.46C3149.71,-713.31 3149.14,-703.08 3149.93,-693.7"/>
<polygon fill="black" stroke="black" points="3153.36,-694.4 3151.43,-683.99 3146.45,-693.34 3153.36,-694.4"/>
</g>
<!-- node36&#45;&gt;node37 -->
<g id="edge90" class="edge">
<title>node36&#45;&gt;node37</title>
<path fill="none" stroke="black" d="M3163.09,-719.7C3163.09,-712.41 3163.09,-703.73 3163.09,-695.54"/>
<polygon fill="black" stroke="black" points="3166.59,-695.62 3163.09,-685.62 3159.59,-695.62 3166.59,-695.62"/>
</g>
<!-- node36&#45;&gt;node37 -->
<g id="edge101" class="edge">
<title>node36&#45;&gt;node37</title>
<path fill="none" stroke="black" d="M3174.53,-721.46C3176.46,-713.31 3177.03,-703.08 3176.24,-693.7"/>
<polygon fill="black" stroke="black" points="3179.73,-693.34 3174.75,-683.99 3172.81,-694.4 3179.73,-693.34"/>
</g>
<!-- node38 -->
<g id="node39" class="node">
<title>node38</title>
<ellipse fill="none" stroke="black" cx="3163.09" cy="-594" rx="27" ry="18"/>
<text text-anchor="middle" x="3163.09" y="-588.95" font-family="Times New Roman,serif" font-size="14.00">)</text>
</g>
<!-- node37&#45;&gt;node38 -->
<g id="edge153" class="edge">
<title>node37&#45;&gt;node38</title>
<path fill="none" stroke="black" d="M3146.71,-651.5C3142.91,-642.4 3141.91,-630.13 3143.7,-619.35"/>
<polygon fill="black" stroke="black" points="3147.01,-620.49 3146.32,-609.91 3140.27,-618.61 3147.01,-620.49"/>
</g>
<!-- node37&#45;&gt;node38 -->
<g id="edge178" class="edge">
<title>node37&#45;&gt;node38</title>
<path fill="none" stroke="black" d="M3157.21,-648.05C3156.42,-640.57 3156.16,-631.58 3156.45,-623.14"/>
<polygon fill="black" stroke="black" points="3159.94,-623.51 3157.12,-613.3 3152.95,-623.04 3159.94,-623.51"/>
</g>
<!-- node37&#45;&gt;node38 -->
<g id="edge184" class="edge">
<title>node37&#45;&gt;node38</title>
<path fill="none" stroke="black" d="M3168.97,-648.05C3169.76,-640.57 3170.01,-631.58 3169.72,-623.14"/>
<polygon fill="black" stroke="black" points="3173.22,-623.04 3169.05,-613.3 3166.24,-623.51 3173.22,-623.04"/>
</g>
<!-- node37&#45;&gt;node38 -->
<g id="edge201" class="edge">
<title>node37&#45;&gt;node38</title>
<path fill="none" stroke="black" d="M3179.46,-651.5C3183.26,-642.4 3184.27,-630.13 3182.48,-619.35"/>
<polygon fill="black" stroke="black" points="3185.91,-618.61 3179.85,-609.91 3179.16,-620.49 3185.91,-618.61"/>
</g>
<!-- node39 -->
<g id="node40" class="node">
<title>node39</title>
<ellipse fill="none" stroke="black" cx="3163.09" cy="-522" rx="27" ry="18"/>
<text text-anchor="middle" x="3163.09" y="-516.95" font-family="Times New Roman,serif" font-size="14.00">b</text>
</g>
<!-- node37&#45;&gt;node39 -->
<g id="edge159" class="edge">
<title>node37&#45;&gt;node39</title>
<path fill="none" stroke="black" d="M3176.84,-650.07C3185.05,-640.1 3194.71,-626.25 3199.09,-612 3203.79,-596.71 3203.79,-591.29 3199.09,-576 3195.9,-565.65 3189.94,-555.51 3183.76,-546.91"/>
<polygon fill="black" stroke="black" points="3186.64,-544.91 3177.76,-539.13 3181.1,-549.19 3186.64,-544.91"/>
</g>
<!-- node40 -->
<g id="node41" class="node">
<title>node40</title>
<ellipse fill="none" stroke="black" cx="3163.09" cy="-450" rx="27" ry="18"/>
<text text-anchor="middle" x="3163.09" y="-444.95" font-family="Times New Roman,serif" font-size="14.00">,</text>
</g>
<!-- node37&#45;&gt;node40 -->
<g id="edge160" class="edge">
<title>node37&#45;&gt;node40</title>
<path fill="none" stroke="black" d="M3149.34,-650.07C3141.13,-640.1 3131.47,-626.25 3127.09,-612 3112.98,-566.12 3112.98,-549.88 3127.09,-504 3130.27,-493.65 3136.24,-483.51 3142.41,-474.91"/>
<polygon fill="black" stroke="black" points="3145.08,-477.19 3148.41,-467.13 3139.53,-472.91 3145.08,-477.19"/>
</g>
<!-- node38&#45;&gt;node39 -->
<g id="edge91" class="edge">
<title>node38&#45;&gt;node39</title>
<path fill="none" stroke="black" d="M3157.21,-576.05C3156.42,-568.57 3156.16,-559.58 3156.45,-551.14"/>
<polygon fill="black" stroke="black" points="3159.94,-551.51 3157.12,-541.3 3152.95,-551.04 3159.94,-551.51"/>
</g>
<!-- node38&#45;&gt;node39 -->
<g id="edge102" class="edge">
<title>node38&#45;&gt;node39</title>
<path fill="none" stroke="black" d="M3168.97,-576.05C3169.76,-568.57 3170.01,-559.58 3169.72,-551.14"/>
<polygon fill="black" stroke="black" points="3173.22,-551.04 3169.05,-541.3 3166.24,-551.51 3173.22,-551.04"/>
</g>
<!-- node39&#45;&gt;node40 -->
<g id="edge154" class="edge">
<title>node39&#45;&gt;node40</title>
<path fill="none" stroke="black" d="M3157.21,-504.05C3156.42,-496.57 3156.16,-487.58 3156.45,-479.14"/>
<polygon fill="black" stroke="black" points="3159.94,-479.51 3157.12,-469.3 3152.95,-479.04 3159.94,-479.51"/>
</g>
<!-- node39&#45;&gt;node40 -->
<g id="edge185" class="edge">
<title>node39&#45;&gt;node40</title>
<path fill="none" stroke="black" d="M3168.97,-504.05C3169.76,-496.57 3170.01,-487.58 3169.72,-479.14"/>
<polygon fill="black" stroke="black" points="3173.22,-479.04 3169.05,-469.3 3166.24,-479.51 3173.22,-479.04"/>
</g>
<!-- node41 -->
<g id="node42" class="node">
<title>node41</title>
<ellipse fill="none" stroke="black" cx="3163.09" cy="-378" rx="27" ry="18"/>
<text text-anchor="middle" x="3163.09" y="-372.95" font-family="Times New Roman,serif" font-size="14.00">b</text>
</g>
<!-- node40&#45;&gt;node41 -->
<g id="edge92" class="edge">
<title>node40&#45;&gt;node41</title>
<path fill="none" stroke="black" d="M3157.21,-432.05C3156.42,-424.57 3156.16,-415.58 3156.45,-407.14"/>
<polygon fill="black" stroke="black" points="3159.94,-407.51 3157.12,-397.3 3152.95,-407.04 3159.94,-407.51"/>
</g>
<!-- node40&#45;&gt;node41 -->
<g id="edge103" class="edge">
<title>node40&#45;&gt;node41</title>
<path fill="none" stroke="black" d="M3168.97,-432.05C3169.76,-424.57 3170.01,-415.58 3169.72,-407.14"/>
<polygon fill="black" stroke="black" points="3173.22,-407.04 3169.05,-397.3 3166.24,-407.51 3173.22,-407.04"/>
</g>
<!-- node42 -->
<g id="node43" class="node">
<title>node42</title>
<ellipse fill="none" stroke="black" cx="3163.09" cy="-306" rx="28.32" ry="18"/>
<text text-anchor="middle" x="3163.09" y="-300.95" font-family="Times New Roman,serif" font-size="14.00">false</text>
</g>
<!-- node41&#45;&gt;node42 -->
<g id="edge155" class="edge">
<title>node41&#45;&gt;node42</title>
<path fill="none" stroke="black" d="M3157.21,-360.05C3156.42,-352.57 3156.16,-343.58 3156.45,-335.14"/>
<polygon fill="black" stroke="black" points="3159.94,-335.51 3157.12,-325.3 3152.95,-335.04 3159.94,-335.51"/>
</g>
<!-- node41&#45;&gt;node42 -->
<g id="edge161" class="edge">
<title>node41&#45;&gt;node42</title>
<path fill="none" stroke="black" d="M3168.97,-360.05C3169.76,-352.57 3170.01,-343.58 3169.72,-335.14"/>
<polygon fill="black" stroke="black" points="3173.22,-335.04 3169.05,-325.3 3166.24,-335.51 3173.22,-335.04"/>
</g>
<!-- node43 -->
<g id="node44" class="node">
<title>node43</title>
<ellipse fill="none" stroke="black" cx="3163.09" cy="-234" rx="27" ry="18"/>
<text text-anchor="middle" x="3163.09" y="-228.95" font-family="Times New Roman,serif" font-size="14.00">10</text>
</g>
<!-- node42&#45;&gt;node43 -->
<g id="edge104" class="edge">
<title>node42&#45;&gt;node43</title>
<path fill="none" stroke="black" d="M3163.09,-287.7C3163.09,-280.41 3163.09,-271.73 3163.09,-263.54"/>
<polygon fill="black" stroke="black" points="3166.59,-263.62 3163.09,-253.62 3159.59,-263.62 3166.59,-263.62"/>
</g>
<!-- node44 -->
<g id="node45" class="node">
<title>node44</title>
<ellipse fill="none" stroke="black" cx="3163.09" cy="-162" rx="28.32" ry="18"/>
<text text-anchor="middle" x="3163.09" y="-156.95" font-family="Times New Roman,serif" font-size="14.00">false</text>
</g>
<!-- node43&#45;&gt;node44 -->
<g id="edge156" class="edge">
<title>node43&#45;&gt;node44</title>
<path fill="none" stroke="black" d="M3157.21,-216.05C3156.42,-208.57 3156.16,-199.58 3156.45,-191.14"/>
<polygon fill="black" stroke="black" points="3159.94,-191.51 3157.12,-181.3 3152.95,-191.04 3159.94,-191.51"/>
</g>
<!-- node43&#45;&gt;node44 -->
<g id="edge162" class="edge">
<title>node43&#45;&gt;node44</title>
<path fill="none" stroke="black" d="M3168.97,-216.05C3169.76,-208.57 3170.01,-199.58 3169.72,-191.14"/>
<polygon fill="black" stroke="black" points="3173.22,-191.04 3169.05,-181.3 3166.24,-191.51 3173.22,-191.04"/>
</g>
<!-- node45 -->
<g id="node46" class="node">
<title>node45</title>
<ellipse fill="none" stroke="black" cx="3163.09" cy="-90" rx="27" ry="18"/>
<text text-anchor="middle" x="3163.09" y="-84.95" font-family="Times New Roman,serif" font-size="14.00">10</text>
</g>
<!-- node44&#45;&gt;node45 -->
<g id="edge105" class="edge">
<title>node44&#45;&gt;node45</title>
<path fill="none" stroke="black" d="M3163.09,-143.7C3163.09,-136.41 3163.09,-127.73 3163.09,-119.54"/>
<polygon fill="black" stroke="black" points="3166.59,-119.62 3163.09,-109.62 3159.59,-119.62 3166.59,-119.62"/>
</g>
<!-- node46 -->
<g id="node47" class="node">
<title>node46</title>
<ellipse fill="none" stroke="black" cx="3163.09" cy="-18" rx="28.32" ry="18"/>
<text text-anchor="middle" x="3163.09" y="-12.95" font-family="Times New Roman,serif" font-size="14.00">false</text>
</g>
<!-- node45&#45;&gt;node46 -->
<g id="edge157" class="edge">
<title>node45&#45;&gt;node46</title>
<path fill="none" stroke="black" d="M3157.21,-72.05C3156.42,-64.57 3156.16,-55.58 3156.45,-47.14"/>
<polygon fill="black" stroke="black" points="3159.94,-47.51 3157.12,-37.3 3152.95,-47.04 3159.94,-47.51"/>
</g>
<!-- node45&#45;&gt;node46 -->
<g id="edge163" class="edge">
<title>node45&#45;&gt;node46</title>
<path fill="none" stroke="black" d="M3168.97,-72.05C3169.76,-64.57 3170.01,-55.58 3169.72,-47.14"/>
<polygon fill="black" stroke="black" points="3173.22,-47.04 3169.05,-37.3 3166.24,-47.51 3173.22,-47.04"/>
</g>
<!-- node47 -->
<g id="node48" class="node">
<title>node47</title>
<ellipse fill="none" stroke="black" cx="3083.09" cy="-2898" rx="27" ry="18"/>
<text text-anchor="middle" x="3083.09" y="-2892.95" font-family="Times New Roman,serif" font-size="14.00">10</text>
</g>
<!-- node48 -->
<g id="node49" class="node">
<title>node48</title>
<ellipse fill="none" stroke="black" cx="3083.09" cy="-2826" rx="38.04" ry="18"/>
<text text-anchor="middle" x="3083.09" y="-2820.95" font-family="Times New Roman,serif" font-size="14.00">node48</text>
</g>
<!-- node47&#45;&gt;node48 -->
<g id="edge158" class="edge">
<title>node47&#45;&gt;node48</title>
<path fill="none" stroke="black" d="M3077.21,-2880.05C3076.43,-2872.68 3076.17,-2863.84 3076.44,-2855.51"/>
<polygon fill="black" stroke="black" points="3079.92,-2855.99 3077.08,-2845.79 3072.93,-2855.54 3079.92,-2855.99"/>
</g>
<!-- node47&#45;&gt;node48 -->
<g id="edge164" class="edge">
<title>node47&#45;&gt;node48</title>
<path fill="none" stroke="black" d="M3088.97,-2880.05C3089.75,-2872.68 3090,-2863.84 3089.73,-2855.51"/>
<polygon fill="black" stroke="black" points="3093.24,-2855.54 3089.1,-2845.79 3086.26,-2855.99 3093.24,-2855.54"/>
</g>
<!-- node49 -->
<g id="node50" class="node">
<title>node49</title>
<ellipse fill="none" stroke="black" cx="3177.09" cy="-2898" rx="27" ry="18"/>
<text text-anchor="middle" x="3177.09" y="-2892.95" font-family="Times New Roman,serif" font-size="14.00">10</text>
</g>
<!-- node50 -->
<g id="node51" class="node">
<title>node50</title>
<ellipse fill="none" stroke="black" cx="3177.09" cy="-2826" rx="38.04" ry="18"/>
<text text-anchor="middle" x="3177.09" y="-2820.95" font-family="Times New Roman,serif" font-size="14.00">node50</text>
</g>
<!-- node49&#45;&gt;node50 -->
<g id="edge165" class="edge">
<title>node49&#45;&gt;node50</title>
<path fill="none" stroke="black" d="M3177.09,-2879.7C3177.09,-2872.41 3177.09,-2863.73 3177.09,-2855.54"/>
<polygon fill="black" stroke="black" points="3180.59,-2855.62 3177.09,-2845.62 3173.59,-2855.62 3180.59,-2855.62"/>
</g>
<!-- node51 -->
<g id="node52" class="node">
<title>node51</title>
<ellipse fill="none" stroke="black" cx="3249.09" cy="-2898" rx="27" ry="18"/>
<text text-anchor="middle" x="3249.09" y="-2892.95" font-family="Times New Roman,serif" font-size="14.00">10</text>
</g>
</g>
</svg>
